<svg width="373" height="291" viewBox="0 0 373 291" fill="none" xmlns="http://www.w3.org/2000/svg">
    <path d="M334.182 115.27C336.424 112.443 333.663 109.401 333.663 109.401L331.839 110.917C333.674 112.523 332.073 115.579 332.073 115.579L334.182 115.27Z" fill="#FFD24E"/>
    <path d="M279.855 35.6616C282.096 32.8342 279.336 29.7922 279.336 29.7922L277.512 31.3089C279.346 32.9145 277.745 35.9706 277.745 35.9706L279.855 35.6616Z" fill="#50C39F"/>
    <path d="M341.073 55.3892C342.778 60.6029 349.996 59.2845 349.996 59.2845L349.62 55.606C345.541 56.7774 342.669 52.2848 342.669 52.2848L341.073 55.3892Z" fill="#50C39F"/>
    <path d="M317.509 36.9561C315.863 35.1271 313.576 36.3654 313.576 36.3654L314.415 37.8341C315.612 36.9313 317.524 38.3993 317.524 38.3993L317.509 36.9561Z" fill="#FFD24E"/>
    <path d="M360.43 130.493C362.876 129.096 362.172 126.207 362.172 126.207L360.406 126.795C360.936 128.476 358.894 130.164 358.894 130.164L360.43 130.493Z" fill="#50C39F"/>
    <path d="M351.835 27.9689C354.28 26.5718 353.577 23.683 353.577 23.683L351.81 24.271C352.341 25.9524 350.298 27.6403 350.298 27.6403L351.835 27.9689Z" fill="#FFD24E"/>
    <path d="M284.405 3.67303C280.842 5.92312 282.778 10.1208 282.778 10.1208L285.502 9.0833C284.053 6.69454 286.974 4.0579 286.974 4.0579L284.405 3.67303Z" fill="#FFD24E"/>
    <path d="M363.602 85.5385C364.896 87.4471 367.524 86.5296 367.524 86.5296L367.016 85.0905C365.582 85.8679 363.92 84.2367 363.92 84.2367L363.602 85.5385Z" fill="#FFD24E"/>
    <path d="M363.305 102.369C363.205 102.444 362.588 101.835 361.924 100.954C361.26 100.073 360.845 99.3127 360.945 99.237C361.046 99.1612 361.662 99.7706 362.326 100.651C362.916 101.434 363.406 102.293 363.305 102.369Z" fill="#50C39F"/>
    <path d="M368.98 100.701C369.053 100.799 368.424 101.427 367.519 102.108C366.615 102.79 365.838 103.222 365.764 103.124C365.691 103.026 366.32 102.398 367.225 101.717C368.129 101.035 368.906 100.603 368.98 100.701Z" fill="#50C39F"/>
    <path d="M365.987 105.718C366.087 105.643 366.704 106.252 367.368 107.133C368.031 108.014 368.447 108.774 368.347 108.85C368.246 108.926 367.629 108.316 366.966 107.436C366.402 106.479 365.886 105.794 365.987 105.718Z" fill="#50C39F"/>
    <path d="M360.413 107.31C360.339 107.212 360.968 106.584 361.873 105.903C362.777 105.222 363.554 104.789 363.628 104.887C363.701 104.985 363.072 105.613 362.168 106.294C361.19 106.878 360.486 107.408 360.413 107.31Z" fill="#50C39F"/>
    <path d="M364.239 108.416C364.065 108.394 364.145 107.873 364.326 107.277C364.506 106.681 364.66 106.258 364.834 106.28C365.009 106.302 364.928 106.823 364.748 107.419C364.493 107.918 364.239 108.416 364.239 108.416Z" fill="#50C39F"/>
    <path d="M369.015 104.51C368.988 104.684 368.465 104.618 367.943 104.551C367.42 104.485 366.998 104.343 366.924 104.245C366.951 104.071 367.473 104.138 367.996 104.204C368.519 104.27 368.941 104.413 369.015 104.51Z" fill="#50C39F"/>
    <path d="M364.98 101.874C364.806 101.851 364.785 101.406 364.765 100.961C364.845 100.441 364.899 100.094 364.999 100.018C365.1 99.9421 365.194 100.485 365.214 100.93C365.308 101.473 365.154 101.896 364.98 101.874Z" fill="#50C39F"/>
    <path d="M362.796 103.366C362.77 103.54 362.321 103.571 361.798 103.505C361.275 103.438 360.853 103.296 360.779 103.198C360.806 103.025 361.255 102.993 361.778 103.06C362.3 103.126 362.723 103.268 362.796 103.366Z" fill="#50C39F"/>
    <path d="M305.272 6.4629C305.172 6.53861 304.555 5.92926 303.891 5.04847C303.228 4.16768 302.812 3.40691 302.912 3.3312C303.013 3.25549 303.629 3.86483 304.293 4.74562C304.957 5.62641 305.373 6.38718 305.272 6.4629Z" fill="#FFD24E"/>
    <path d="M310.947 4.79548C311.02 4.89335 310.391 5.5212 309.487 6.20261C308.582 6.88402 307.805 7.31614 307.732 7.21827C307.658 7.12041 308.287 6.49255 309.192 5.81114C310.17 5.2276 310.947 4.79548 310.947 4.79548Z" fill="#FFD24E"/>
    <path d="M307.954 9.81264C308.054 9.73693 308.671 10.3463 309.335 11.2271C309.998 12.1079 310.414 12.8686 310.314 12.9443C310.213 13.0201 309.597 12.4107 308.933 11.5299C308.443 10.6713 307.954 9.81264 307.954 9.81264Z" fill="#FFD24E"/>
    <path d="M302.453 11.5025C302.38 11.4046 303.009 10.7767 303.914 10.0953C304.818 9.41391 305.595 8.98179 305.669 9.07966C305.742 9.17753 305.113 9.80538 304.209 10.4868C303.231 11.0703 302.453 11.5025 302.453 11.5025Z" fill="#FFD24E"/>
    <path d="M306.206 12.5106C306.032 12.4885 306.112 11.9677 306.293 11.3713C306.473 10.7748 306.627 10.352 306.802 10.3741C306.976 10.3963 306.896 10.917 306.715 11.5134C306.534 12.1099 306.28 12.6085 306.206 12.5106Z" fill="#FFD24E"/>
    <path d="M311.056 8.70258C311.029 8.87615 310.506 8.80969 309.984 8.74323C309.461 8.67677 309.039 8.5346 308.965 8.43673C308.992 8.26316 309.514 8.32962 310.037 8.39608C310.56 8.46254 311.082 8.529 311.056 8.70258Z" fill="#FFD24E"/>
    <path d="M307.021 6.06602C306.847 6.04386 306.826 5.59884 306.806 5.15382C306.886 4.63309 306.94 4.28593 307.04 4.21022C307.214 4.23237 307.235 4.67739 307.255 5.12242C307.349 5.6653 307.195 6.08817 307.021 6.06602Z" fill="#FFD24E"/>
    <path d="M304.837 7.55803C304.81 7.73161 304.361 7.76302 303.839 7.69656C303.316 7.6301 302.894 7.48792 302.82 7.39006C302.847 7.21648 303.296 7.18508 303.819 7.25154C304.341 7.318 304.763 7.46017 304.837 7.55803Z" fill="#FFD24E"/>
    <path d="M102.383 54.9755C99.0241 53.6585 96.9222 57.188 96.9222 57.188L98.906 58.4888C99.9051 56.265 103.296 56.9024 103.296 56.9024L102.383 54.9755Z" fill="#FFD24E"/>
    <path d="M42.1375 130.204C38.7782 128.887 36.6763 132.417 36.6763 132.417L38.66 133.718C39.6591 131.494 43.0497 132.131 43.0497 132.131L42.1375 130.204Z" fill="#50C39F"/>
    <path d="M43.1044 65.8933C47.5919 62.7386 44.2206 56.2212 44.2206 56.2212L40.813 57.657C43.1257 61.2149 39.6692 65.275 39.6692 65.275L43.1044 65.8933Z" fill="#50C39F"/>
    <path d="M32.3659 93.8167C31.0982 95.9261 32.951 97.7507 32.951 97.7507L34.1103 96.5196C32.8968 95.6379 33.7419 93.381 33.7419 93.381L32.3659 93.8167Z" fill="#FFD24E"/>
    <path d="M109.267 25.4239C107.216 23.4935 104.659 25.011 104.659 25.011L105.738 26.5285C107.19 25.5296 109.402 26.9895 109.402 26.9895L109.267 25.4239Z" fill="#50C39F"/>
    <path d="M13.7359 63.6188C11.6847 61.6883 9.12799 63.2058 9.12799 63.2058L10.2068 64.7233C11.6596 63.7244 13.8709 65.1843 13.8709 65.1843L13.7359 63.6188Z" fill="#FFD24E"/>
    <path d="M10.2158 135.206C13.4094 137.956 16.8576 134.877 16.8576 134.877L15.0689 132.575C13.2083 134.66 9.83273 132.637 9.83273 132.637L10.2158 135.206Z" fill="#FFD24E"/>
    <path d="M65.3493 35.5338C66.7962 33.7383 65.1506 31.4939 65.1506 31.4939L63.9227 32.3997C65.0855 33.5441 64.0115 35.6105 64.0115 35.6105L65.3493 35.5338Z" fill="#FFD24E"/>
    <path d="M81.5312 30.897C81.6329 30.971 81.2305 31.7389 80.5823 32.6311C79.934 33.5234 79.328 34.1434 79.2263 34.0694C79.1245 33.9955 79.5269 33.2276 80.1752 32.3353C80.7514 31.5422 81.4294 30.8231 81.5312 30.897Z" fill="#50C39F"/>
    <path d="M78.2773 25.9584C78.3493 25.8593 79.1338 26.2778 80.0499 26.9433C80.9659 27.6088 81.6063 28.2256 81.5343 28.3247C81.4622 28.4239 80.6778 28.0054 79.7617 27.3398C78.8457 26.6743 78.2053 26.0576 78.2773 25.9584Z" fill="#50C39F"/>
    <path d="M83.9503 27.3536C83.8486 27.2797 84.251 26.5118 84.8992 25.6195C85.5475 24.7273 86.1535 24.1073 86.2552 24.1812C86.357 24.2552 85.9546 25.0231 85.3063 25.9153C84.5563 26.7336 84.0521 27.4276 83.9503 27.3536Z" fill="#50C39F"/>
    <path d="M87.1024 32.2183C87.0304 32.3174 86.2459 31.8989 85.3299 31.2334C84.4138 30.5679 83.7734 29.9511 83.8454 29.852C83.9175 29.7528 84.702 30.1713 85.618 30.8368C86.462 31.6015 87.1744 32.1191 87.1024 32.2183Z" fill="#50C39F"/>
    <path d="M87.0413 28.236C87.0711 28.4091 86.5496 28.4847 85.9264 28.4863C85.3032 28.4879 84.8538 28.4644 84.8241 28.2913C84.7943 28.1182 85.3158 28.0426 85.939 28.041C86.4901 28.1385 87.0413 28.236 87.0413 28.236Z" fill="#50C39F"/>
    <path d="M81.91 24.8109C82.0839 24.7857 82.1731 25.305 82.2624 25.8242C82.3516 26.3435 82.3391 26.7888 82.2671 26.8879C82.0933 26.9131 82.004 26.3939 81.9148 25.8746C81.8255 25.3554 81.838 24.9101 81.91 24.8109Z" fill="#50C39F"/>
    <path d="M80.5682 29.4401C80.5979 29.6132 80.1783 29.7627 79.7586 29.9122C79.2372 29.9878 78.8896 30.0382 78.7878 29.9642C78.686 29.8903 79.1777 29.6416 79.5973 29.4921C80.089 29.2434 80.5384 29.267 80.5682 29.4401Z" fill="#50C39F"/>
    <path d="M82.6335 31.0922C82.8073 31.067 82.9686 31.4871 83.0578 32.0064C83.1471 32.5256 83.1346 32.9709 83.0625 33.0701C82.8887 33.0953 82.7275 32.6751 82.6382 32.1559C82.5489 31.6366 82.5615 31.1913 82.6335 31.0922Z" fill="#50C39F"/>
    <path d="M6.78319 114.435C6.88497 114.509 6.48255 115.276 5.8343 116.169C5.18605 117.061 4.58008 117.681 4.4783 117.607C4.37652 117.533 4.77894 116.765 5.42719 115.873C6.07544 114.981 6.68141 114.361 6.78319 114.435Z" fill="#FFD24E"/>
    <path d="M3.52936 109.496C3.60139 109.397 4.38588 109.815 5.30189 110.481C6.21791 111.146 6.85834 111.763 6.78631 111.862C6.71428 111.961 5.9298 111.543 5.01378 110.877C4.16979 110.113 3.52936 109.496 3.52936 109.496Z" fill="#FFD24E"/>
    <path d="M9.20238 110.891C9.1006 110.817 9.50302 110.049 10.1513 109.157C10.7995 108.265 11.4055 107.645 11.5073 107.719C11.6091 107.793 11.2066 108.561 10.5584 109.453C9.88038 110.172 9.20238 110.891 9.20238 110.891Z" fill="#FFD24E"/>
    <path d="M12.4265 115.657C12.3544 115.756 11.5699 115.337 10.6539 114.672C9.73791 114.006 9.09748 113.39 9.16951 113.29C9.24154 113.191 10.026 113.61 10.942 114.275C11.786 115.04 12.4265 115.657 12.4265 115.657Z" fill="#FFD24E"/>
    <path d="M12.2933 111.774C12.3231 111.947 11.8017 112.022 11.1785 112.024C10.5553 112.026 10.1059 112.002 10.0761 111.829C10.0464 111.656 10.5678 111.58 11.191 111.579C11.8142 111.577 12.3654 111.674 12.2933 111.774Z" fill="#FFD24E"/>
    <path d="M7.23412 108.249C7.40792 108.224 7.49718 108.743 7.58643 109.263C7.67569 109.782 7.66316 110.227 7.59114 110.326C7.41733 110.351 7.32807 109.832 7.23882 109.313C7.14956 108.794 7.06031 108.274 7.23412 108.249Z" fill="#FFD24E"/>
    <path d="M5.89222 112.879C5.92197 113.052 5.50233 113.201 5.08269 113.351C4.56127 113.426 4.21365 113.477 4.11187 113.403C4.08212 113.23 4.50176 113.08 4.9214 112.931C5.41307 112.682 5.86247 112.705 5.89222 112.879Z" fill="#FFD24E"/>
    <path d="M7.95756 114.531C8.13137 114.505 8.29266 114.926 8.38191 115.445C8.47117 115.964 8.45864 116.409 8.38661 116.509C8.21281 116.534 8.05152 116.114 7.96227 115.594C7.87301 115.075 7.88554 114.63 7.95756 114.531Z" fill="#FFD24E"/>
    <path d="M186 290.542C263.32 290.542 326 227.862 326 150.542C326 73.2221 263.32 10.542 186 10.542C108.68 10.542 46 73.2221 46 150.542C46 227.862 108.68 290.542 186 290.542Z" fill="#FFFBDE"/>
    <mask id="mask0_379_7780" style="mask-type:alpha" maskUnits="userSpaceOnUse" x="46" y="10" width="280" height="281">
        <path d="M186 290.542C263.32 290.542 326 227.862 326 150.542C326 73.2221 263.32 10.542 186 10.542C108.68 10.542 46 73.2221 46 150.542C46 227.862 108.68 290.542 186 290.542Z" fill="white"/>
    </mask>
    <g mask="url(#mask0_379_7780)">
        <path fill-rule="evenodd" clip-rule="evenodd" d="M22 138.545C22 138.545 38.6575 137.929 39.3882 153.504C39.3882 153.504 45.3788 152.152 46.5479 159.288C46.5479 159.288 68.3197 155.059 71.2417 178.008C71.2417 178.008 91.2601 172.275 98.7121 189.193C98.7121 189.193 105.81 186.451 107.887 193.703C107.887 193.703 129.616 187.158 137.397 204.569C137.397 204.569 155.846 200.129 166 215.542H22V138.545Z" fill="#FFF5B0"/>
        <path fill-rule="evenodd" clip-rule="evenodd" d="M350 138.545C350 138.545 333.343 137.929 332.612 153.504C332.612 153.504 326.621 152.152 325.452 159.288C325.452 159.288 303.68 155.059 300.758 178.008C300.758 178.008 280.74 172.275 273.288 189.193C273.288 189.193 266.19 186.451 264.113 193.703C264.113 193.703 242.384 187.158 234.604 204.569C234.604 204.569 216.155 200.129 206 215.542H350V138.545Z" fill="#FFF5B0"/>
        <path fill-rule="evenodd" clip-rule="evenodd" d="M83.9998 215.542H75L79.5001 187.542L83.9998 159.542L88.4999 187.542L93 215.542H83.9998Z" fill="#3BB28A"/>
        <path fill-rule="evenodd" clip-rule="evenodd" d="M46.5 215.542H39L42.7498 193.542L46.5 171.542L50.2498 193.542L54 215.542H46.5Z" fill="#3BB28A"/>
        <path fill-rule="evenodd" clip-rule="evenodd" d="M66 216.542H51L58.5 172.042L66 127.542L73.5 172.042L81 216.542H66Z" fill="#50C39F"/>
        <path fill-rule="evenodd" clip-rule="evenodd" d="M182.322 102.542H151.678C151.305 102.542 151 102.992 151 103.542C151 104.092 151.305 104.542 151.678 104.542H182.322C182.695 104.542 183 104.092 183 103.542C183 102.992 182.695 102.542 182.322 102.542Z" fill="#E3E1CA"/>
        <path fill-rule="evenodd" clip-rule="evenodd" d="M146.333 102.542H141.667C141.3 102.542 141 102.992 141 103.542C141 104.092 141.3 104.542 141.667 104.542H146.333C146.7 104.542 147 104.092 147 103.542C147 102.992 146.7 102.542 146.333 102.542Z" fill="#E3E1CA"/>
        <path opacity="0.211984" fill-rule="evenodd" clip-rule="evenodd" d="M178.322 119.542H147.678C147.305 119.542 147 119.992 147 120.542C147 121.092 147.305 121.542 147.678 121.542H178.322C178.695 121.542 179 121.092 179 120.542C179 119.992 178.695 119.542 178.322 119.542Z" fill="#425060"/>
        <path fill-rule="evenodd" clip-rule="evenodd" d="M144.325 119.542H132.675C132.303 119.542 132 119.992 132 120.542C132 121.092 132.303 121.542 132.675 121.542H144.325C144.696 121.542 145 121.092 145 120.542C145 119.992 144.696 119.542 144.325 119.542Z" fill="#E3E1CA"/>
        <path fill-rule="evenodd" clip-rule="evenodd" d="M136.322 138.542H105.678C105.305 138.542 105 138.992 105 139.542C105 140.092 105.305 140.542 105.678 140.542H136.322C136.695 140.542 137 140.092 137 139.542C137 138.992 136.695 138.542 136.322 138.542Z" fill="#E3E1CA"/>
        <path fill-rule="evenodd" clip-rule="evenodd" d="M107.325 138.542H95.6746C95.3036 138.542 95 138.992 95 139.542C95 140.092 95.3036 140.542 95.6746 140.542H107.325C107.696 140.542 108 140.092 108 139.542C108 138.992 107.696 138.542 107.325 138.542Z" fill="#D2E1F9"/>
        <path fill-rule="evenodd" clip-rule="evenodd" d="M114.322 131.542H83.6781C83.3052 131.542 83 131.992 83 132.542C83 133.092 83.3052 133.542 83.6781 133.542H114.322C114.695 133.542 115 133.092 115 132.542C115 131.992 114.695 131.542 114.322 131.542Z" fill="#D2E1F9"/>
        <path fill-rule="evenodd" clip-rule="evenodd" d="M81.2959 131.542H75.7041C75.3169 131.542 75 131.992 75 132.542C75 133.092 75.3169 133.542 75.7041 133.542H81.2959C81.6831 133.542 82 133.092 82 132.542C82 131.992 81.6831 131.542 81.2959 131.542Z" fill="#D2E1F9"/>
        <path fill-rule="evenodd" clip-rule="evenodd" d="M184.33 107.542H166.67C166.301 107.542 166 107.992 166 108.542C166 109.092 166.301 109.542 166.67 109.542H184.33C184.699 109.542 185 109.092 185 108.542C185 107.992 184.699 107.542 184.33 107.542Z" fill="#E3E1CA"/>
        <path fill-rule="evenodd" clip-rule="evenodd" d="M163.381 107.542H160.619C160.279 107.542 160 107.992 160 108.542C160 109.092 160.279 109.542 160.619 109.542H163.381C163.721 109.542 164 109.092 164 108.542C164 107.992 163.721 107.542 163.381 107.542Z" fill="#E3E1CA"/>
        <path fill-rule="evenodd" clip-rule="evenodd" d="M126.33 165.542H108.67C108.301 165.542 108 165.992 108 166.542C108 167.093 108.301 167.542 108.67 167.542H126.33C126.699 167.542 127 167.093 127 166.542C127 165.992 126.699 165.542 126.33 165.542Z" fill="#D2E1F9"/>
        <path fill-rule="evenodd" clip-rule="evenodd" d="M105.381 165.542H102.619C102.278 165.542 102 165.992 102 166.542C102 167.093 102.278 167.542 102.619 167.542H105.381C105.721 167.542 106 167.093 106 166.542C106 165.992 105.721 165.542 105.381 165.542Z" fill="#D2E1F9"/>
        <path fill-rule="evenodd" clip-rule="evenodd" d="M124.322 115.542H93.6781C93.3052 115.542 93 115.092 93 114.542C93 113.992 93.3052 113.542 93.6781 113.542H124.322C124.695 113.542 125 113.992 125 114.542C125 115.092 124.695 115.542 124.322 115.542Z" fill="#D2E1F9"/>
        <path fill-rule="evenodd" clip-rule="evenodd" d="M90.3333 115.542H85.6668C85.3001 115.542 85 115.092 85 114.542C85 113.992 85.3001 113.542 85.6668 113.542H90.3333C90.6999 113.542 91 113.992 91 114.542C91 115.092 90.6999 115.542 90.3333 115.542Z" fill="#D2E1F9"/>
        <path fill-rule="evenodd" clip-rule="evenodd" d="M127.33 113.542H109.67C109.301 113.542 109 113.092 109 112.542C109 111.992 109.301 111.542 109.67 111.542H127.33C127.699 111.542 128 111.992 128 112.542C128 113.092 127.699 113.542 127.33 113.542Z" fill="#D2E1F9"/>
        <path fill-rule="evenodd" clip-rule="evenodd" d="M106.381 113.542H103.619C103.279 113.542 103 113.092 103 112.542C103 111.992 103.279 111.542 103.619 111.542H106.381C106.721 111.542 107 111.992 107 112.542C107 113.092 106.721 113.542 106.381 113.542Z" fill="#D2E1F9"/>
        <path fill-rule="evenodd" clip-rule="evenodd" d="M137.315 179.542H100.685C100.308 179.542 100 179.092 100 178.542C100 177.991 100.308 177.542 100.685 177.542H137.315C137.692 177.542 138 177.991 138 178.542C138 179.092 137.692 179.542 137.315 179.542Z" fill="#D2E1F9"/>
        <path fill-rule="evenodd" clip-rule="evenodd" d="M95.3333 179.542H90.6668C90.2997 179.542 90 179.092 90 178.542C90 177.991 90.2997 177.542 90.6668 177.542H95.3333C95.6999 177.542 96 177.991 96 178.542C96 179.092 95.6999 179.542 95.3333 179.542Z" fill="#D2E1F9"/>
        <path fill-rule="evenodd" clip-rule="evenodd" d="M128.291 175.542H103.709C103.319 175.542 103 175.092 103 174.542C103 173.991 103.319 173.542 103.709 173.542H128.291C128.681 173.542 129 173.991 129 174.542C129 175.092 128.681 175.542 128.291 175.542Z" fill="#D2E1F9"/>
        <path fill-rule="evenodd" clip-rule="evenodd" d="M101.381 175.542H98.6194C98.2788 175.542 98 175.092 98 174.542C98 173.991 98.2788 173.542 98.6194 173.542H101.381C101.721 173.542 102 173.991 102 174.542C102 175.092 101.721 175.542 101.381 175.542Z" fill="#D2E1F9"/>
        <path fill-rule="evenodd" clip-rule="evenodd" d="M206.33 153.542H188.67C188.301 153.542 188 153.992 188 154.542C188 155.092 188.301 155.542 188.67 155.542H206.33C206.699 155.542 207 155.092 207 154.542C207 153.992 206.699 153.542 206.33 153.542Z" fill="white"/>
        <path fill-rule="evenodd" clip-rule="evenodd" d="M186.381 153.542H183.619C183.279 153.542 183 153.992 183 154.542C183 155.092 183.279 155.542 183.619 155.542H186.381C186.721 155.542 187 155.092 187 154.542C187 153.992 186.721 153.542 186.381 153.542Z" fill="white"/>
        <path fill-rule="evenodd" clip-rule="evenodd" d="M234.33 176.542H216.67C216.301 176.542 216 176.992 216 177.542C216 178.093 216.301 178.542 216.67 178.542H234.33C234.699 178.542 235 178.093 235 177.542C235 176.992 234.699 176.542 234.33 176.542Z" fill="white"/>
        <path fill-rule="evenodd" clip-rule="evenodd" d="M214.381 176.542H211.619C211.279 176.542 211 176.992 211 177.542C211 178.093 211.279 178.542 211.619 178.542H214.381C214.722 178.542 215 178.093 215 177.542C215 176.992 214.722 176.542 214.381 176.542Z" fill="white"/>
        <path fill-rule="evenodd" clip-rule="evenodd" d="M213.321 215.542H186.68C186.306 215.542 186 215.992 186 216.542C186 217.093 186.306 217.542 186.68 217.542H213.321C213.695 217.542 214 217.093 214 216.542C214 215.992 213.695 215.542 213.321 215.542Z" fill="white"/>
        <path fill-rule="evenodd" clip-rule="evenodd" d="M183.36 215.542H178.64C178.288 215.542 178 215.992 178 216.542C178 217.093 178.288 217.542 178.64 217.542H183.36C183.712 217.542 184 217.093 184 216.542C184 215.992 183.712 215.542 183.36 215.542Z" fill="white"/>
        <path fill-rule="evenodd" clip-rule="evenodd" d="M224.324 181.542H195.677C195.305 181.542 195 181.992 195 182.542C195 183.092 195.305 183.542 195.677 183.542H224.324C224.696 183.542 225 183.092 225 182.542C225 181.992 224.696 181.542 224.324 181.542Z" fill="white"/>
        <path fill-rule="evenodd" clip-rule="evenodd" d="M192.54 181.542H191.461C191.208 181.542 191 181.992 191 182.542C191 183.092 191.208 183.542 191.461 183.542H192.54C192.793 183.542 193 183.092 193 182.542C193 181.992 192.793 181.542 192.54 181.542Z" fill="white"/>
        <path fill-rule="evenodd" clip-rule="evenodd" d="M269.99 233.542H102.01C100.348 233.542 99 232.199 99 230.542C99 228.885 100.348 227.542 102.01 227.542H269.99C271.653 227.542 273 228.885 273 230.542C273 232.199 271.653 233.542 269.99 233.542Z" fill="#D2E1F9"/>
        <path fill-rule="evenodd" clip-rule="evenodd" d="M242.959 247.542H181.041C179.362 247.542 178 246.199 178 244.542C178 242.885 179.362 241.542 181.041 241.542H242.959C244.638 241.542 246 242.885 246 244.542C246 246.199 244.638 247.542 242.959 247.542Z" fill="#D2E1F9"/>
        <path fill-rule="evenodd" clip-rule="evenodd" d="M159.025 247.542H141.975C140.332 247.542 139 246.199 139 244.542C139 242.885 140.332 241.542 141.975 241.542H159.025C160.668 241.542 162 242.885 162 244.542C162 246.199 160.668 247.542 159.025 247.542Z" fill="#D2E1F9"/>
        <path fill-rule="evenodd" clip-rule="evenodd" d="M222.982 237.542C222.982 235.885 224.333 234.542 226 234.542H198C199.667 234.542 201.018 235.885 201.018 237.542C201.018 239.199 199.667 240.542 198 240.542H226C224.333 240.542 222.982 239.199 222.982 237.542Z" fill="#D2E1F9"/>
        <path fill-rule="evenodd" clip-rule="evenodd" d="M311.909 233.542H283.091C281.384 233.542 280 232.199 280 230.542C280 228.885 281.384 227.542 283.091 227.542H311.909C313.616 227.542 315 228.885 315 230.542C315 232.199 313.616 233.542 311.909 233.542Z" fill="#D2E1F9"/>
        <path fill-rule="evenodd" clip-rule="evenodd" d="M87.9759 233.542H72.0237C70.354 233.542 69 232.199 69 230.542C69 228.885 70.354 227.542 72.0237 227.542H87.9759C89.646 227.542 91 228.885 91 230.542C91 232.199 89.646 233.542 87.9759 233.542Z" fill="#D2E1F9"/>
        <path fill-rule="evenodd" clip-rule="evenodd" d="M102 221.542H22V215.542H102C103.657 215.542 105 216.885 105 218.542C105 220.199 103.657 221.542 102 221.542Z" fill="#D2E1F9"/>
        <path fill-rule="evenodd" clip-rule="evenodd" d="M280 215.542H288L284 189.542L280 163.542L276 189.542L272 215.542H280Z" fill="#3BB28A"/>
        <path fill-rule="evenodd" clip-rule="evenodd" d="M306 215.542H312L309 195.042L306 174.542L303 195.042L300 215.542H306Z" fill="#3BB28A"/>
        <path fill-rule="evenodd" clip-rule="evenodd" d="M292.5 217.542H302L297.25 184.542L292.5 151.542L287.75 184.542L283 217.542H292.5Z" fill="#50C39F"/>
        <path fill-rule="evenodd" clip-rule="evenodd" d="M322 216.542H335L328.5 172.042L322 127.542L315.5 172.042L309 216.542H322Z" fill="#50C39F"/>
        <mask id="mask1_379_7780" style="mask-type:alpha" maskUnits="userSpaceOnUse" x="260" y="215" width="90" height="7">
            <path fill-rule="evenodd" clip-rule="evenodd" d="M260.27 215.713H350V221.207H260.27V215.713Z" fill="white"/>
        </mask>
        <g mask="url(#mask1_379_7780)">
            <path fill-rule="evenodd" clip-rule="evenodd" d="M263.285 221.207H350V215.713H263.285C261.619 215.713 260.27 216.943 260.27 218.46C260.27 219.977 261.619 221.207 263.285 221.207Z" fill="#D2E1F9"/>
        </g>
        <path d="M119 226.542C116.484 226.002 114.087 224.975 112 223.542" stroke="#424242" stroke-width="2" stroke-linecap="round"/>
        <path d="M233 230.102C224.369 231.516 215.225 229.483 208 224.542" stroke="#424242" stroke-width="2" stroke-linecap="round"/>
        <path d="M214 230.496C211.296 230.671 208.552 230.343 206 229.542" stroke="#424242" stroke-width="2" stroke-linecap="round"/>
        <path opacity="0.503534" d="M107 161.037C100.862 159.436 94.2545 160.359 87.8787 161.042C81.503 161.725 74.6689 162.087 69 159.542" stroke="#424242" stroke-width="2" stroke-linecap="round"/>
        <path opacity="0.503534" d="M150 121.244C137.863 116.026 123.834 117.314 110.646 119.144C97.4573 120.974 83.7874 123.216 71 119.654" stroke="#424242" stroke-width="2" stroke-linecap="round"/>
        <path opacity="0.503534" d="M99 141.542H83" stroke="#424242" stroke-width="2" stroke-linecap="round"/>
        <path opacity="0.503534" d="M89 181.033C80.3539 181.849 71.6053 181.684 63 180.542" stroke="#424242" stroke-width="2" stroke-linecap="round"/>
        <path d="M138.696 229.717C129.55 229.814 120.426 225.915 114 219.164" stroke="#424242" stroke-width="2" stroke-linecap="round"/>
        <path fill-rule="evenodd" clip-rule="evenodd" d="M273.08 120.07L269.63 120.574C269.63 120.574 263.01 117.146 262.078 117.146C261.146 117.146 257.323 118.255 257.323 118.255C257.323 118.255 250.237 113.616 247.44 114.221C244.643 114.826 238.023 118.355 238.023 118.355C238.023 118.355 234.48 117.347 232.242 117.766C230.005 118.186 220.495 123.154 220.495 123.154C220.495 123.154 217.278 121.835 216.439 121.826C215.6 121.817 212.821 123.737 212.821 123.737C212.821 123.737 209.132 122.68 207.874 122.982C206.615 123.285 200.728 124.667 200.728 124.667H285.48L273.08 120.07Z" fill="white"/>
        <path fill-rule="evenodd" clip-rule="evenodd" d="M150.638 93.3282L147.691 93.7904C147.691 93.7904 142.035 90.6475 141.238 90.6475C140.442 90.6475 137.176 91.6642 137.176 91.6642C137.176 91.6642 131.122 87.4121 128.732 87.9669C126.342 88.5213 120.686 91.7567 120.686 91.7567C120.686 91.7567 117.659 90.8327 115.747 91.217C113.836 91.6013 105.71 96.1552 105.71 96.1552C105.71 96.1552 102.962 94.9459 102.245 94.9378C101.528 94.9303 99.154 96.6894 99.154 96.6894C99.154 96.6894 96.0031 95.7205 94.9276 95.9977C93.8521 96.2749 88.8228 97.542 88.8228 97.542H161.232L150.638 93.3282Z" fill="#D2E1F9"/>
        <path fill-rule="evenodd" clip-rule="evenodd" d="M241.387 140.578L243.999 141.04C243.999 141.04 249.012 137.898 249.718 137.898C250.424 137.898 253.319 138.914 253.319 138.914C253.319 138.914 258.685 134.663 260.804 135.217C262.922 135.772 267.934 139.007 267.934 139.007C267.934 139.007 270.618 138.082 272.312 138.467C274.007 138.851 281.209 143.405 281.209 143.405C281.209 143.405 283.644 142.196 284.28 142.188C284.915 142.18 287.02 143.939 287.02 143.939C287.02 143.939 289.813 142.97 290.766 143.248C291.719 143.525 296.177 144.792 296.177 144.792H231.996L241.387 140.578Z" fill="#D2E1F9"/>
        <path fill-rule="evenodd" clip-rule="evenodd" d="M203.087 82.8019L199.293 83.1976C199.293 83.1976 195.431 80.0287 194.87 80.0287C194.309 80.0287 191.666 80.8659 191.666 80.8659C191.666 80.8659 187.742 77.9688 186.058 78.3218C184.375 78.6753 179.41 82.0575 179.41 82.0575C179.41 82.0575 176.248 80.4304 174.901 80.6753C173.554 80.9197 169.839 83.5343 169.839 83.5343C169.839 83.5343 167.903 82.7644 167.398 82.7597C166.893 82.7542 165.22 83.8743 165.22 83.8743C165.22 83.8743 163 83.2574 162.242 83.4341C161.485 83.6109 157.941 84.417 157.941 84.417H208.957L203.087 82.8019Z" fill="white"/>
        <path fill-rule="evenodd" clip-rule="evenodd" d="M207.43 90.7592L208.837 90.9273C208.837 90.9273 211.537 89.7839 211.916 89.7839C212.297 89.7839 214.087 90.2624 214.087 90.2624C214.087 90.2624 216.745 88.6072 217.885 88.8091C219.026 89.0105 222.389 90.9436 222.389 90.9436C222.389 90.9436 224.532 90.0137 225.444 90.1536C226.356 90.2934 228.873 91.7875 228.873 91.7875C228.873 91.7875 230.184 91.3477 230.527 91.3446C230.869 91.3419 232.002 91.982 232.002 91.982C232.002 91.982 233.506 91.6294 234.019 91.7302C234.532 91.8313 236.933 92.292 236.933 92.292H202.374L207.43 90.7592Z" fill="white"/>
        <path fill-rule="evenodd" clip-rule="evenodd" d="M236.852 103.993L238.66 104.245C238.66 104.245 242.131 102.53 242.62 102.53C243.109 102.53 245.41 103.248 245.41 103.248C245.41 103.248 248.828 100.765 250.294 101.068C251.761 101.37 256.085 104.27 256.085 104.27C256.085 104.27 258.839 102.875 260.012 103.085C261.185 103.294 264.421 105.535 264.421 105.535C264.421 105.535 266.107 104.876 266.547 104.871C266.987 104.867 268.444 105.827 268.444 105.827C268.444 105.827 270.377 105.298 271.037 105.449C271.697 105.601 274.783 106.292 274.783 106.292H230.35L236.852 103.993Z" fill="#D2E1F9"/>
        <path fill-rule="evenodd" clip-rule="evenodd" d="M216.362 85.7295C216.362 92.2534 211.389 97.542 205.254 97.542C199.119 97.542 194.146 92.2534 194.146 85.7295C194.146 79.2056 199.119 73.917 205.254 73.917C211.389 73.917 216.362 79.2056 216.362 85.7295Z" fill="#FFCB58"/>
        <path fill-rule="evenodd" clip-rule="evenodd" d="M214.717 86.167C214.717 91.4827 210.664 95.792 205.665 95.792C200.667 95.792 196.614 91.4827 196.614 86.167C196.614 80.8512 200.667 76.542 205.665 76.542C210.664 76.542 214.717 80.8512 214.717 86.167Z" fill="#FFB958"/>
        <path fill-rule="evenodd" clip-rule="evenodd" d="M167.77 191.447C167.77 191.447 166.484 190.694 164.538 191.96L169.117 199.65C169.117 199.65 170.564 197.915 169.795 194.071L167.77 191.447Z" fill="#373B55"/>
        <path fill-rule="evenodd" clip-rule="evenodd" d="M172.862 151.147C185.536 161.117 193.046 169.822 192.772 172.393C192.089 178.804 182.143 186.546 168.403 194.033L166.447 191.463C166.447 191.463 180.92 178.57 184.206 173.346C184.206 173.346 187.218 170.735 177.262 168.538C166.377 166.136 167.855 151.147 167.855 151.147C167.855 151.147 172.002 150.753 172.862 151.147Z" fill="#344582"/>
        <path fill-rule="evenodd" clip-rule="evenodd" d="M125.193 163.141H131.337V162.205H125.193V163.141Z" fill="#F29E3B"/>
        <path fill-rule="evenodd" clip-rule="evenodd" d="M125.193 165.95H131.337V165.014H125.193V165.95Z" fill="#F29E3B"/>
        <path fill-rule="evenodd" clip-rule="evenodd" d="M161.992 170.63H118.237C117.715 170.63 117.293 170.211 117.293 169.694C117.293 169.177 117.715 168.758 118.237 168.758H161.992C162.513 168.758 162.936 169.177 162.936 169.694C162.936 170.211 162.513 170.63 161.992 170.63Z" fill="#373B55"/>
        <path fill-rule="evenodd" clip-rule="evenodd" d="M192.419 104.166C192.419 104.166 195.751 108.54 191.484 111.803C187.218 115.067 188.607 107.137 188.607 107.137L190.513 105.171L192.419 104.166Z" fill="#262A42"/>
        <path fill-rule="evenodd" clip-rule="evenodd" d="M191.127 144.163C193.442 144.827 201.514 147.633 203.785 148.042C206.056 148.451 210.203 150.152 210.858 151.418C211.512 152.685 211.83 153.908 206.499 154.716C206.499 154.716 206.006 154.68 206.653 153.71C207.299 152.739 204.211 151.811 203.484 151.821C202.803 151.83 194.799 150.745 189.045 149.895C188.158 149.764 187.242 149.328 186.625 148.626C185.326 147.151 184.509 144.924 183.339 142.033C181.63 137.811 180.326 134.363 179.522 131.398C179.522 131.398 177.715 125.795 179.579 123.987C181.977 121.66 184.904 123.081 186.037 127.76C187.169 132.438 189.664 142.112 191.127 144.163Z" fill="#F5927E"/>
        <path fill-rule="evenodd" clip-rule="evenodd" d="M216.439 162.205L214.946 155.743V155.743C214.942 155.743 214.005 152.922 212.046 152.922H205.068V150.972H212.046C215.36 150.972 216.666 155.034 216.72 155.207L218.235 161.742L216.439 162.205Z" fill="#8999A5"/>
        <path fill-rule="evenodd" clip-rule="evenodd" d="M212.485 152.844H202.918C202.166 152.844 201.557 152.216 201.557 151.44C201.557 150.664 202.166 150.036 202.918 150.036H212.485C213.237 150.036 213.846 150.664 213.846 151.44C213.846 152.216 213.237 152.844 212.485 152.844Z" fill="#373B55"/>
        <path fill-rule="evenodd" clip-rule="evenodd" d="M179.509 132.249C180.263 135.053 180.957 138.617 182.528 142.547L189.269 138.818C188.193 135.265 186.548 131.302 185.91 128.646C184.797 124.015 181.921 122.608 179.564 124.912C177.733 126.702 179.509 132.249 179.509 132.249Z" fill="#FFD24E"/>
        <path fill-rule="evenodd" clip-rule="evenodd" d="M216.401 162.205L215.103 157.95C214.205 156.078 212.349 154.873 210.355 154.873H202.435V152.844H210.355C213.101 152.844 215.656 154.523 216.863 157.121L216.915 157.257L218.235 161.585L216.401 162.205Z" fill="#9FACB9"/>
        <path fill-rule="evenodd" clip-rule="evenodd" d="M209.852 155.652H200.285C199.533 155.652 198.924 155.024 198.924 154.248C198.924 153.472 199.533 152.844 200.285 152.844H209.852C210.603 152.844 211.213 153.472 211.213 154.248C211.213 155.024 210.603 155.652 209.852 155.652Z" fill="#373B55"/>
        <path fill-rule="evenodd" clip-rule="evenodd" d="M185.758 119.267C185.758 119.267 184.561 120.024 183.791 121.95C183.791 121.95 181.374 122.129 179.613 119.425L181.614 117.271L185.758 119.267Z" fill="#F5927E"/>
        <path fill-rule="evenodd" clip-rule="evenodd" d="M191.873 109.144C191.873 109.144 192.419 117.167 188.78 119.691C186.447 121.309 180.853 117.358 180.853 117.358C180.853 117.358 179.458 115.113 179.628 112.17C180.522 108.139 183.695 106.752 186.162 107.002C188.629 107.253 191.466 107.328 191.873 109.144Z" fill="#F8AB98"/>
        <path fill-rule="evenodd" clip-rule="evenodd" d="M188.143 111.708C189.891 111.856 191.022 110.436 191.024 110.434V110.433L190.312 108.914C190.294 108.896 190.277 108.879 190.258 108.861C190.083 108.797 188.488 108.212 187.835 107.971C187.378 107.803 185.132 108.014 183.323 108.217C182.049 108.953 180.952 110.273 180.496 112.339C180.408 114.625 181.637 117.193 181.637 117.193C181.637 117.193 182.777 118.903 185.365 119.144C183.448 117.928 183.656 116.331 184.441 114.615C185.221 112.913 186.395 111.56 188.143 111.708Z" fill="#F5927E"/>
        <path fill-rule="evenodd" clip-rule="evenodd" d="M180.296 117.271C180.296 117.271 182.679 116.055 183.513 113.64C183.513 113.64 181.472 111.679 182.72 110.22C183.968 108.761 184.636 110.823 184.78 111.522C184.78 111.522 185.782 110.002 187.855 110.075C189.928 110.148 192.49 109.49 192.76 105.986C193.029 102.483 190.441 101.239 190.441 101.239C190.441 101.239 183.47 97.8632 179.459 104.832C179.459 104.832 177.7 105.151 177.143 107.462C176.786 108.94 176.995 110.345 177.974 111.465C181.054 114.986 180.296 117.271 180.296 117.271Z" fill="#373B55"/>
        <path fill-rule="evenodd" clip-rule="evenodd" d="M179.614 118.208C179.614 118.208 183.243 120.884 185.758 121.812L184.033 123.824C184.033 123.824 180.318 121.796 178.736 119.006L179.614 118.208Z" fill="#D83058"/>
        <path fill-rule="evenodd" clip-rule="evenodd" d="M165.762 168.758L165.569 167.982L166.155 167.843C168.469 167.29 170.522 165.953 171.934 164.077L172.591 164.55C171.066 166.576 168.849 168.021 166.348 168.618L165.762 168.758Z" fill="#8999A5"/>
        <path fill-rule="evenodd" clip-rule="evenodd" d="M178.747 209.947L163.814 164.734L165.558 164.077L180.491 209.29L178.747 209.947Z" fill="#9FACB9"/>
        <path fill-rule="evenodd" clip-rule="evenodd" d="M179.117 209.947C178.551 209.947 178.02 209.568 177.821 208.959L166.526 174.474C166.273 173.703 166.648 172.858 167.364 172.586C168.081 172.316 168.865 172.719 169.117 173.489L180.413 207.975C180.665 208.746 180.289 209.591 179.574 209.862C179.423 209.919 179.268 209.947 179.117 209.947Z" fill="#E24D6B"/>
        <path fill-rule="evenodd" clip-rule="evenodd" d="M180.174 205.267C179.915 205.267 179.657 205.158 179.464 204.943C179.091 204.527 179.107 203.869 179.5 203.474L217.662 165.042L216.998 163.347H165.671C165.131 163.347 164.692 162.882 164.692 162.308C164.692 161.735 165.131 161.269 165.671 161.269H218.305L219.99 165.564L180.849 204.981C180.66 205.172 180.417 205.267 180.174 205.267Z" fill="#FFD24E"/>
        <path fill-rule="evenodd" clip-rule="evenodd" d="M149.77 205.735C149.77 208.061 148.001 209.947 145.82 209.947C143.639 209.947 141.87 208.061 141.87 205.735C141.87 203.408 143.639 201.522 145.82 201.522C148.001 201.522 149.77 203.408 149.77 205.735Z" fill="#9FACB9"/>
        <path fill-rule="evenodd" clip-rule="evenodd" d="M147.136 206.203C147.136 207.237 146.351 208.075 145.381 208.075C144.411 208.075 143.625 207.237 143.625 206.203C143.625 205.169 144.411 204.331 145.381 204.331C146.351 204.331 147.136 205.169 147.136 206.203Z" fill="#373B55"/>
        <path fill-rule="evenodd" clip-rule="evenodd" d="M173.013 206.194C172.976 206.2 172.937 206.202 172.899 206.203L145.951 206.184C145.636 206.184 145.381 205.978 145.381 205.725C145.381 205.471 145.637 205.266 145.952 205.267L172.899 205.285C173.214 205.286 173.47 205.491 173.469 205.745C173.469 205.966 173.273 206.152 173.013 206.194Z" fill="#D83058"/>
        <path fill-rule="evenodd" clip-rule="evenodd" d="M172.483 207.139C171.939 207.139 171.498 206.677 171.498 206.108C171.498 191.296 159.978 179.246 145.82 179.246C131.661 179.246 120.142 191.296 120.142 206.108C120.142 206.677 119.7 207.139 119.156 207.139C118.612 207.139 118.171 206.677 118.171 206.108C118.171 190.159 130.574 177.183 145.82 177.183C161.065 177.183 173.469 190.159 173.469 206.108C173.469 206.677 173.027 207.139 172.483 207.139Z" fill="#D83058"/>
        <path fill-rule="evenodd" clip-rule="evenodd" d="M262.014 207.139C261.471 207.139 261.029 206.677 261.029 206.108C261.029 191.296 249.51 179.246 235.351 179.246C221.192 179.246 209.673 191.296 209.673 206.108C209.673 206.677 209.231 207.139 208.687 207.139C208.143 207.139 207.702 206.677 207.702 206.108C207.702 190.159 220.105 177.183 235.351 177.183C250.597 177.183 263 190.159 263 206.108C263 206.677 262.559 207.139 262.014 207.139Z" fill="#D83058"/>
        <path fill-rule="evenodd" clip-rule="evenodd" d="M177.858 211.819L145.381 209.792L145.436 208.798L176.92 210.763V198.9L145.698 202.858L145.588 201.869L177.858 197.777V211.819Z" fill="#9FACB9"/>
        <path fill-rule="evenodd" clip-rule="evenodd" d="M173.474 207.12C173.403 207.132 173.33 207.139 173.256 207.139L150.86 207.124C150.257 207.124 149.77 206.708 149.77 206.195C149.77 205.681 150.256 205.264 150.861 205.267L173.257 205.281C173.86 205.281 174.347 205.698 174.347 206.211C174.346 206.66 173.972 207.035 173.474 207.12Z" fill="#E24D6B"/>
        <path fill-rule="evenodd" clip-rule="evenodd" d="M162.68 168.758L159.862 167.483C158.838 167.019 158.307 165.664 158.653 164.397L158.995 163.141L159.696 163.427L159.353 164.683C159.135 165.484 159.471 166.342 160.119 166.635L162.936 167.91L162.68 168.758Z" fill="#8999A5"/>
        <path fill-rule="evenodd" clip-rule="evenodd" d="M184.748 203.407C185.469 207.207 183.164 210.91 179.601 211.678C176.038 212.447 172.566 209.989 171.845 206.189C171.125 202.389 173.43 198.686 176.992 197.918C180.555 197.15 184.028 199.607 184.748 203.407Z" fill="#D83058"/>
        <path fill-rule="evenodd" clip-rule="evenodd" d="M180.438 203.774C180.726 205.294 179.805 206.775 178.38 207.082C176.954 207.39 175.566 206.407 175.277 204.887C174.989 203.367 175.911 201.885 177.336 201.578C178.761 201.271 180.15 202.254 180.438 203.774Z" fill="white"/>
        <path fill-rule="evenodd" clip-rule="evenodd" d="M164.692 166.886C164.692 167.92 163.906 168.758 162.936 168.758C161.967 168.758 161.181 167.92 161.181 166.886C161.181 165.852 161.967 165.014 162.936 165.014C163.906 165.014 164.692 165.852 164.692 166.886Z" fill="#8999A5"/>
        <path fill-rule="evenodd" clip-rule="evenodd" d="M157.391 164.096L164.481 166.886L166.029 166.294L173.687 164.365C175.127 164.002 175.709 162.131 174.764 160.905C174.346 160.362 173.707 160.076 173.056 160.139L166.71 160.76L158.494 159.424C157.454 159.255 156.444 159.889 156.065 160.948C155.613 162.213 156.21 163.632 157.391 164.096Z" fill="#373B55"/>
        <path fill-rule="evenodd" clip-rule="evenodd" d="M173.469 153.336C173.468 153.335 173.468 153.335 173.467 153.334L170.637 150.914L157.009 150.036C157.009 150.036 156.676 151.564 156.834 153.51C157.03 153.573 157.226 153.635 157.427 153.696C165.654 156.185 173.465 153.337 173.469 153.336Z" fill="#344582"/>
        <path fill-rule="evenodd" clip-rule="evenodd" d="M178.24 119.144C178.24 119.144 163.031 121.096 155.937 149.931C155.354 152.3 166.089 154.884 175.701 153.285C175.701 153.285 175.643 144.808 179.839 139.37C184.036 133.932 188.462 127.553 183.692 123.825C178.92 120.096 178.24 119.144 178.24 119.144Z" fill="#FFD24E"/>
        <path fill-rule="evenodd" clip-rule="evenodd" d="M121.682 169.694H154.158V134.122H121.682V169.694Z" fill="#FFB958"/>
        <path fill-rule="evenodd" clip-rule="evenodd" d="M119.926 137.866H155.914V134.122H119.926V137.866Z" fill="#F29E3B"/>
        <path fill-rule="evenodd" clip-rule="evenodd" d="M146.259 165.95H150.647V161.269H146.259V165.95Z" fill="#F29E3B"/>
        <path fill-rule="evenodd" clip-rule="evenodd" d="M140.114 165.95H144.503V161.269H140.114V165.95Z" fill="#F29E3B"/>
        <path fill-rule="evenodd" clip-rule="evenodd" d="M145.353 230.542C145.286 230.542 145.231 230.487 145.231 230.417V181.052C145.231 180.984 145.286 180.928 145.353 180.928C145.421 180.928 145.475 180.984 145.475 181.052V230.417C145.475 230.487 145.421 230.542 145.353 230.542Z" fill="#9FACB9"/>
        <path fill-rule="evenodd" clip-rule="evenodd" d="M169.898 206.328H121.722C121.654 206.328 121.6 206.272 121.6 206.203C121.6 206.134 121.654 206.078 121.722 206.078H169.898C169.965 206.078 170.02 206.134 170.02 206.203C170.02 206.272 169.965 206.328 169.898 206.328Z" fill="#9FACB9"/>
        <path fill-rule="evenodd" clip-rule="evenodd" d="M151.626 229.606C151.572 229.606 151.523 229.569 151.508 229.514L138.962 182.02C138.945 181.955 138.984 181.886 139.049 181.869C139.113 181.849 139.181 181.89 139.199 181.956L151.744 229.45C151.762 229.516 151.722 229.584 151.657 229.602C151.647 229.605 151.636 229.606 151.626 229.606Z" fill="#9FACB9"/>
        <path fill-rule="evenodd" clip-rule="evenodd" d="M122.635 212.756C122.581 212.756 122.533 212.719 122.518 212.662C122.501 212.596 122.54 212.528 122.604 212.509L168.954 199.654C169.018 199.636 169.085 199.677 169.102 199.743C169.119 199.81 169.081 199.878 169.016 199.897L122.666 212.751C122.656 212.755 122.645 212.756 122.635 212.756Z" fill="#9FACB9"/>
        <path fill-rule="evenodd" clip-rule="evenodd" d="M158.02 227.734C157.978 227.734 157.937 227.711 157.914 227.671L133.493 184.859C133.459 184.8 133.479 184.723 133.538 184.689C133.596 184.655 133.671 184.675 133.707 184.735L158.127 227.547C158.161 227.607 158.141 227.683 158.082 227.717C158.063 227.728 158.042 227.734 158.02 227.734Z" fill="#9FACB9"/>
        <path fill-rule="evenodd" clip-rule="evenodd" d="M124.462 218.372C124.421 218.372 124.38 218.35 124.357 218.309C124.324 218.249 124.344 218.171 124.401 218.137L166.183 193.114C166.239 193.08 166.314 193.099 166.349 193.16C166.383 193.22 166.363 193.298 166.305 193.333L124.523 218.356C124.504 218.367 124.483 218.372 124.462 218.372Z" fill="#9FACB9"/>
        <path fill-rule="evenodd" clip-rule="evenodd" d="M162.589 223.989C162.557 223.989 162.526 223.977 162.502 223.953L128.031 188.632C127.983 188.583 127.983 188.503 128.031 188.453C128.078 188.404 128.157 188.404 128.205 188.453L162.676 223.773C162.723 223.822 162.723 223.903 162.676 223.953C162.652 223.977 162.621 223.989 162.589 223.989Z" fill="#9FACB9"/>
        <path fill-rule="evenodd" clip-rule="evenodd" d="M128.118 223.989C128.086 223.989 128.055 223.977 128.031 223.953C127.983 223.903 127.983 223.822 128.031 223.773L162.501 188.453C162.549 188.404 162.628 188.404 162.676 188.453C162.723 188.503 162.723 188.583 162.676 188.632L128.205 223.953C128.181 223.977 128.15 223.989 128.118 223.989Z" fill="#9FACB9"/>
        <path fill-rule="evenodd" clip-rule="evenodd" d="M166.244 218.372C166.223 218.372 166.202 218.367 166.183 218.356L124.402 193.333C124.344 193.298 124.324 193.22 124.357 193.16C124.39 193.099 124.465 193.08 124.523 193.114L166.305 218.137C166.363 218.171 166.383 218.249 166.35 218.309C166.327 218.35 166.286 218.372 166.244 218.372Z" fill="#9FACB9"/>
        <path fill-rule="evenodd" clip-rule="evenodd" d="M133.6 227.734C133.579 227.734 133.557 227.728 133.538 227.717C133.48 227.683 133.459 227.607 133.493 227.547L157.914 184.735C157.948 184.675 158.023 184.655 158.082 184.689C158.141 184.723 158.161 184.8 158.127 184.859L133.706 227.671C133.683 227.711 133.642 227.734 133.6 227.734Z" fill="#9FACB9"/>
        <path fill-rule="evenodd" clip-rule="evenodd" d="M168.985 212.756C168.975 212.756 168.964 212.755 168.954 212.751L122.604 199.897C122.54 199.877 122.501 199.809 122.518 199.743C122.535 199.676 122.604 199.637 122.666 199.654L169.016 212.509C169.081 212.528 169.119 212.596 169.102 212.662C169.087 212.719 169.039 212.756 168.985 212.756Z" fill="#9FACB9"/>
        <path fill-rule="evenodd" clip-rule="evenodd" d="M139.081 229.606C139.07 229.606 139.06 229.605 139.049 229.602C138.984 229.584 138.945 229.516 138.962 229.45L151.508 181.956C151.526 181.89 151.593 181.85 151.658 181.868C151.723 181.885 151.762 181.954 151.744 182.02L139.199 229.514C139.184 229.569 139.135 229.606 139.081 229.606Z" fill="#9FACB9"/>
        <path fill-rule="evenodd" clip-rule="evenodd" d="M166.878 199.373L162.8 192.831C162.628 192.556 162.713 192.194 162.989 192.022L164.129 191.314C164.405 191.143 164.768 191.227 164.94 191.502L169.018 198.044C169.189 198.319 169.104 198.682 168.829 198.853L167.689 199.561C167.413 199.733 167.05 199.649 166.878 199.373Z" fill="#2F2F2F"/>
        <path fill-rule="evenodd" clip-rule="evenodd" d="M145.81 227.341C134.205 227.341 124.799 217.877 124.799 206.203C124.799 194.528 134.205 185.064 145.81 185.064C157.415 185.064 166.821 194.528 166.821 206.203C166.821 217.877 157.415 227.341 145.81 227.341ZM145.81 180.928C131.935 180.928 120.687 192.244 120.687 206.203C120.687 220.162 131.935 231.478 145.81 231.478C159.685 231.478 170.934 220.162 170.934 206.203C170.934 192.244 159.685 180.928 145.81 180.928Z" fill="#373B55"/>
        <path fill-rule="evenodd" clip-rule="evenodd" d="M145.927 227.301C134.328 227.301 124.926 217.898 124.926 206.299C124.926 194.701 134.328 185.299 145.927 185.299C157.526 185.299 166.928 194.701 166.928 206.299C166.928 217.898 157.526 227.301 145.927 227.301ZM145.927 183.8C133.501 183.8 123.427 193.873 123.427 206.299C123.427 218.726 133.501 228.8 145.927 228.8C158.353 228.8 168.427 218.726 168.427 206.299C168.427 193.873 158.353 183.8 145.927 183.8Z" fill="#9FACB9"/>
        <path fill-rule="evenodd" clip-rule="evenodd" d="M241.152 229.606C241.097 229.606 241.048 229.569 241.033 229.514L228.488 182.02C228.471 181.955 228.51 181.886 228.575 181.869C228.639 181.849 228.707 181.89 228.725 181.956L241.27 229.45C241.287 229.516 241.248 229.584 241.183 229.602C241.173 229.605 241.162 229.606 241.152 229.606Z" fill="#9FACB9"/>
        <path fill-rule="evenodd" clip-rule="evenodd" d="M212.161 212.756C212.107 212.756 212.059 212.719 212.044 212.662C212.027 212.596 212.065 212.528 212.13 212.509L258.48 199.654C258.544 199.636 258.61 199.677 258.628 199.743C258.645 199.81 258.607 199.878 258.542 199.897L212.192 212.751C212.182 212.755 212.171 212.756 212.161 212.756Z" fill="#9FACB9"/>
        <path fill-rule="evenodd" clip-rule="evenodd" d="M247.546 227.734C247.504 227.734 247.462 227.711 247.439 227.671L223.019 184.859C222.986 184.8 223.005 184.723 223.064 184.689C223.122 184.655 223.197 184.675 223.233 184.735L247.653 227.547C247.687 227.607 247.667 227.683 247.608 227.717C247.588 227.728 247.567 227.734 247.546 227.734Z" fill="#9FACB9"/>
        <path fill-rule="evenodd" clip-rule="evenodd" d="M213.988 218.372C213.946 218.372 213.905 218.35 213.883 218.309C213.85 218.249 213.87 218.171 213.927 218.137L255.709 193.114C255.765 193.08 255.84 193.099 255.875 193.16C255.909 193.22 255.889 193.298 255.831 193.333L214.049 218.356C214.03 218.367 214.009 218.372 213.988 218.372Z" fill="#9FACB9"/>
        <path fill-rule="evenodd" clip-rule="evenodd" d="M252.115 223.989C252.083 223.989 252.051 223.977 252.028 223.953L217.557 188.632C217.509 188.583 217.509 188.503 217.557 188.453C217.604 188.404 217.683 188.404 217.731 188.453L252.202 223.773C252.249 223.822 252.249 223.903 252.202 223.953C252.178 223.977 252.146 223.989 252.115 223.989Z" fill="#9FACB9"/>
        <path fill-rule="evenodd" clip-rule="evenodd" d="M217.643 223.989C217.612 223.989 217.58 223.977 217.557 223.953C217.509 223.903 217.509 223.822 217.557 223.773L252.027 188.453C252.075 188.404 252.154 188.404 252.202 188.453C252.249 188.503 252.249 188.583 252.202 188.632L217.731 223.953C217.707 223.977 217.675 223.989 217.643 223.989Z" fill="#9FACB9"/>
        <path fill-rule="evenodd" clip-rule="evenodd" d="M255.77 218.372C255.749 218.372 255.728 218.367 255.709 218.356L213.927 193.333C213.87 193.298 213.85 193.22 213.883 193.16C213.916 193.099 213.991 193.08 214.049 193.114L255.831 218.137C255.889 218.171 255.909 218.249 255.875 218.309C255.853 218.35 255.812 218.372 255.77 218.372Z" fill="#9FACB9"/>
        <path fill-rule="evenodd" clip-rule="evenodd" d="M223.126 227.734C223.105 227.734 223.083 227.728 223.064 227.717C223.005 227.683 222.985 227.607 223.019 227.547L247.439 184.735C247.474 184.675 247.549 184.655 247.608 184.689C247.666 184.723 247.687 184.8 247.653 184.859L223.232 227.671C223.209 227.711 223.168 227.734 223.126 227.734Z" fill="#9FACB9"/>
        <path fill-rule="evenodd" clip-rule="evenodd" d="M258.511 212.756C258.501 212.756 258.49 212.755 258.48 212.751L212.129 199.897C212.065 199.877 212.027 199.809 212.044 199.743C212.062 199.676 212.129 199.637 212.192 199.654L258.542 212.509C258.607 212.528 258.645 212.596 258.628 212.662C258.613 212.719 258.565 212.756 258.511 212.756Z" fill="#9FACB9"/>
        <path fill-rule="evenodd" clip-rule="evenodd" d="M228.607 229.606C228.596 229.606 228.586 229.605 228.575 229.602C228.51 229.584 228.471 229.516 228.488 229.45L241.034 181.956C241.051 181.89 241.118 181.85 241.183 181.868C241.249 181.885 241.287 181.954 241.27 182.02L228.725 229.514C228.71 229.569 228.661 229.606 228.607 229.606Z" fill="#9FACB9"/>
        <path fill-rule="evenodd" clip-rule="evenodd" d="M239.447 205.735C239.447 208.062 237.607 209.948 235.336 209.948C233.065 209.948 231.225 208.062 231.225 205.735C231.225 203.409 233.065 201.522 235.336 201.522C237.607 201.522 239.447 203.409 239.447 205.735Z" fill="#9FACB9"/>
        <path fill-rule="evenodd" clip-rule="evenodd" d="M236.706 206.203C236.706 207.237 235.888 208.075 234.879 208.075C233.87 208.075 233.052 207.237 233.052 206.203C233.052 205.169 233.87 204.331 234.879 204.331C235.888 204.331 236.706 205.169 236.706 206.203Z" fill="#373B55"/>
        <path fill-rule="evenodd" clip-rule="evenodd" d="M235.336 227.341C223.731 227.341 214.324 217.877 214.324 206.203C214.324 194.528 223.731 185.064 235.336 185.064C246.941 185.064 256.348 194.528 256.348 206.203C256.348 217.877 246.941 227.341 235.336 227.341ZM235.336 180.928C221.46 180.928 210.213 192.244 210.213 206.203C210.213 220.162 221.46 231.478 235.336 231.478C249.212 231.478 260.459 220.162 260.459 206.203C260.459 192.244 249.212 180.928 235.336 180.928Z" fill="#373B55"/>
        <path fill-rule="evenodd" clip-rule="evenodd" d="M235.453 227.301C223.854 227.301 214.452 217.898 214.452 206.299C214.452 194.701 223.854 185.299 235.453 185.299C247.052 185.299 256.454 194.701 256.454 206.299C256.454 217.898 247.052 227.301 235.453 227.301ZM235.453 183.8C223.027 183.8 212.953 193.873 212.953 206.299C212.953 218.726 223.027 228.8 235.453 228.8C247.879 228.8 257.953 218.726 257.953 206.299C257.953 193.873 247.879 183.8 235.453 183.8Z" fill="#9FACB9"/>
        <path fill-rule="evenodd" clip-rule="evenodd" d="M234.879 230.542C234.812 230.542 234.757 230.487 234.757 230.417V181.052C234.757 180.984 234.812 180.928 234.879 180.928C234.947 180.928 235.002 180.984 235.002 181.052V230.417C235.002 230.487 234.947 230.542 234.879 230.542Z" fill="#9FACB9"/>
        <path fill-rule="evenodd" clip-rule="evenodd" d="M259.424 206.328H211.247C211.18 206.328 211.126 206.272 211.126 206.203C211.126 206.134 211.18 206.078 211.247 206.078H259.424C259.491 206.078 259.546 206.134 259.546 206.203C259.546 206.272 259.491 206.328 259.424 206.328Z" fill="#9FACB9"/>
        <path fill-rule="evenodd" clip-rule="evenodd" d="M190.972 212.756C190.827 212.756 190.681 212.719 190.544 212.643L177.481 205.291C177.026 205.034 176.849 204.428 177.085 203.936C177.322 203.444 177.882 203.252 178.338 203.508L191.401 210.86C191.857 211.116 192.034 211.723 191.797 212.215C191.631 212.559 191.308 212.756 190.972 212.756Z" fill="#373B55"/>
        <path fill-rule="evenodd" clip-rule="evenodd" d="M197.35 213.692H188.21C187.825 213.692 187.513 213.398 187.513 213.036V211.539C187.513 211.177 187.825 210.883 188.21 210.883H197.35C197.735 210.883 198.046 211.177 198.046 211.539V213.036C198.046 213.398 197.735 213.692 197.35 213.692Z" fill="#9FACB9"/>
        <path fill-rule="evenodd" clip-rule="evenodd" d="M189.246 208.042C189.246 208.042 187.265 208.801 187.265 211.248H198.79C198.79 211.248 196.897 209.167 192.357 207.729L189.246 208.042Z" fill="#373B55"/>
        <path fill-rule="evenodd" clip-rule="evenodd" d="M157.017 150.972C157.017 150.972 155.525 157.369 160.218 160.523C160.218 160.523 173.195 169.144 181.702 177.943C181.702 177.943 183.873 195.52 189.739 208.075L192.78 207.729C192.78 207.729 190.912 190.145 190.209 179.52C189.505 168.895 171.415 151.854 171.415 151.854L157.017 150.972Z" fill="#263238"/>
        <path fill-rule="evenodd" clip-rule="evenodd" d="M234.843 207.139C234.731 207.139 234.618 207.117 234.509 207.073C234.164 206.935 233.936 206.604 233.89 206.235C233.303 204.254 223.778 179.261 217.431 162.713C217.227 162.182 217.458 161.571 217.949 161.349C218.439 161.128 219.002 161.38 219.206 161.912C219.206 161.912 223.385 172.806 227.541 183.727C229.619 189.188 231.691 194.656 233.233 198.772C236.036 206.257 236.036 206.257 235.539 206.818C235.354 207.026 235.101 207.139 234.843 207.139Z" fill="#FFD24E"/>
        <path fill-rule="evenodd" clip-rule="evenodd" d="M145.342 207.139C144.965 207.139 144.611 206.88 144.478 206.465L135.779 179.468C135.609 178.942 135.858 178.364 136.335 178.177C136.812 177.992 137.337 178.264 137.506 178.791L146.206 205.789C146.375 206.315 146.126 206.893 145.649 207.08C145.547 207.119 145.443 207.139 145.342 207.139Z" fill="#E24D6B"/>
        <path fill-rule="evenodd" clip-rule="evenodd" d="M145.439 207.139C145.302 207.139 145.161 207.106 145.029 207.037C144.564 206.794 144.371 206.192 144.599 205.695L162.036 167.449C162.263 166.951 162.823 166.744 163.288 166.988C163.753 167.231 163.946 167.833 163.719 168.33L146.282 206.576C146.119 206.932 145.786 207.139 145.439 207.139Z" fill="#E24D6B"/>
        <path fill-rule="evenodd" clip-rule="evenodd" d="M183.149 135.128C183.027 134.841 182.898 134.56 182.756 134.297L179.434 128.167C179.434 128.167 181.673 124.275 178.286 125.189C174.899 126.103 174.836 132.552 178.433 141.762C178.856 140.972 179.34 140.206 179.906 139.496C181.03 138.083 182.169 136.605 183.149 135.128Z" fill="#E4B836"/>
        <path fill-rule="evenodd" clip-rule="evenodd" d="M188.813 145.336C191.101 145.996 199.081 148.788 201.326 149.195C203.571 149.601 207.671 151.294 208.318 152.554C208.964 153.814 209.279 155.032 204.009 155.835C204.009 155.835 203.522 155.8 204.161 154.834C204.801 153.868 201.748 152.944 201.028 152.955C200.356 152.965 192.443 151.884 186.756 151.039C185.878 150.908 184.973 150.474 184.363 149.776C183.078 148.308 182.271 146.093 181.114 143.216C179.426 139.016 178.135 135.586 177.341 132.637C177.341 132.637 175.555 127.062 177.397 125.263C179.768 122.948 182.661 124.362 183.781 129.016C184.9 133.671 187.367 143.295 188.813 145.336Z" fill="#F8AB98"/>
        <path fill-rule="evenodd" clip-rule="evenodd" d="M177.349 133.362C178.116 136.129 178.82 139.644 180.416 143.521L187.265 139.842C186.173 136.337 184.502 132.428 183.853 129.807C182.722 125.238 179.8 123.85 177.405 126.123C175.545 127.889 177.349 133.362 177.349 133.362Z" fill="#FFD24E"/>
        <path fill-rule="evenodd" clip-rule="evenodd" d="M214.431 161.112H217.724V159.353H214.431V161.112Z" fill="#9FACB9"/>
        <path fill-rule="evenodd" clip-rule="evenodd" d="M214.431 161.112H217.724V160.232H214.431V161.112Z" fill="#8999A5"/>
        <path fill-rule="evenodd" clip-rule="evenodd" d="M186.418 114.599C186.418 114.599 187.329 117.174 183.972 118.162C183.972 118.162 184.477 119.485 187.12 119.757C189.762 120.028 191.951 116.695 192.197 114.599C192.397 112.898 188.482 113.743 186.418 114.599Z" fill="white"/>
        <path fill-rule="evenodd" clip-rule="evenodd" d="M186.229 114.495C186.182 114.495 186.135 114.48 186.095 114.449C185.066 113.646 184.809 112.158 184.798 112.094C184.78 111.982 184.859 111.877 184.975 111.859C185.087 111.838 185.201 111.917 185.219 112.03C185.222 112.043 185.463 113.427 186.363 114.129C186.454 114.201 186.469 114.33 186.395 114.418C186.353 114.469 186.291 114.495 186.229 114.495Z" fill="white"/>
        <path fill-rule="evenodd" clip-rule="evenodd" d="M183.802 118.013C183.75 118.013 183.699 117.981 183.666 117.918C182.687 116.101 183.394 113.85 183.425 113.756C183.464 113.636 183.563 113.583 183.65 113.636C183.736 113.69 183.774 113.831 183.736 113.951C183.729 113.972 183.083 116.042 183.938 117.631C183.995 117.736 183.98 117.886 183.905 117.965C183.874 117.998 183.838 118.013 183.802 118.013Z" fill="white"/>
        <path fill-rule="evenodd" clip-rule="evenodd" d="M130.342 183.981C129.98 183.981 129.634 183.762 129.478 183.394L123.96 170.416C123.748 169.918 123.963 169.335 124.44 169.114C124.915 168.892 125.476 169.117 125.688 169.615L131.206 182.593C131.418 183.091 131.203 183.675 130.725 183.895C130.601 183.953 130.471 183.981 130.342 183.981Z" fill="#373B55"/>
        <path fill-rule="evenodd" clip-rule="evenodd" d="M150.347 179.583C150.237 179.583 150.125 179.563 150.015 179.519C149.524 179.327 149.275 178.753 149.458 178.236L152.498 169.677C152.682 169.161 153.229 168.899 153.719 169.092C154.211 169.285 154.46 169.858 154.277 170.375L151.237 178.934C151.094 179.335 150.732 179.583 150.347 179.583Z" fill="#373B55"/>
        <path fill-rule="evenodd" clip-rule="evenodd" d="M127.994 170.787C127.54 170.787 127.171 170.341 127.171 169.792V133.962C127.171 133.412 127.54 132.966 127.994 132.966C128.449 132.966 128.818 133.412 128.818 133.962V169.792C128.818 170.341 128.449 170.787 127.994 170.787Z" fill="#373B55"/>
        <path fill-rule="evenodd" clip-rule="evenodd" d="M148.575 170.787C148.12 170.787 147.751 170.341 147.751 169.792V133.962C147.751 133.412 148.12 132.966 148.575 132.966C149.029 132.966 149.398 133.412 149.398 133.962V169.792C149.398 170.341 149.029 170.787 148.575 170.787Z" fill="#373B55"/>
        <path fill-rule="evenodd" clip-rule="evenodd" d="M188.912 102.993C188.912 102.993 196.624 100.977 198.457 101.346C200.291 101.716 193.958 105.402 193.958 105.402L192.26 105.699L188.912 102.993Z" fill="#E24D6B"/>
        <path fill-rule="evenodd" clip-rule="evenodd" d="M184.548 110.747C190.035 107.969 193.851 105.809 193.851 105.809C193.851 105.809 192.057 94.9733 180.302 101.798C172.95 106.066 178.709 113.615 178.709 113.615C180.007 112.999 181.256 112.389 182.454 111.795C182.422 111.379 182.522 110.951 182.857 110.56C183.644 109.638 184.202 110.097 184.548 110.747Z" fill="#E24D6B"/>
    </g>
</svg>
