<svg width="414" height="313" viewBox="0 0 414 313" fill="none" xmlns="http://www.w3.org/2000/svg">
    <path d="M353.068 137.611C355.31 134.784 352.549 131.742 352.549 131.742L350.725 133.259C352.56 134.864 350.959 137.92 350.959 137.92L353.068 137.611Z" fill="#FFD24E"/>
    <path d="M298.741 58.0029C300.982 55.1755 298.221 52.1335 298.221 52.1335L296.397 53.6502C298.232 55.2558 296.631 58.3119 296.631 58.3119L298.741 58.0029Z" fill="#50C39F"/>
    <path d="M359.959 77.7305C361.664 82.9442 368.882 81.6258 368.882 81.6258L368.505 77.9473C364.427 79.1187 361.555 74.6262 361.555 74.6262L359.959 77.7305Z" fill="#50C39F"/>
    <path d="M336.395 59.2969C334.749 57.4679 332.462 58.7063 332.462 58.7063L333.3 60.1749C334.498 59.2722 336.409 60.7402 336.409 60.7402L336.395 59.2969Z" fill="#FFD24E"/>
    <path d="M379.316 152.834C381.762 151.437 381.058 148.548 381.058 148.548L379.292 149.136C379.822 150.817 377.779 152.505 377.779 152.505L379.316 152.834Z" fill="#50C39F"/>
    <path d="M370.72 50.3102C373.166 48.9131 372.463 46.0244 372.463 46.0244L370.696 46.6123C371.226 48.2937 369.184 49.9816 369.184 49.9816L370.72 50.3102Z" fill="#FFD24E"/>
    <path d="M303.291 26.0139C299.728 28.2639 301.664 32.4616 301.664 32.4616L304.388 31.4241C302.938 29.0354 305.86 26.3987 305.86 26.3987L303.291 26.0139Z" fill="#FFD24E"/>
    <path d="M382.488 107.879C383.782 109.788 386.409 108.87 386.409 108.87L385.902 107.431C384.468 108.209 382.806 106.577 382.806 106.577L382.488 107.879Z" fill="#FFD24E"/>
    <path d="M382.191 124.709C382.09 124.785 381.474 124.176 380.81 123.295C380.146 122.414 379.73 121.653 379.831 121.578C379.931 121.502 380.548 122.111 381.212 122.992C381.802 123.775 382.291 124.634 382.191 124.709Z" fill="#50C39F"/>
    <path d="M387.865 123.042C387.939 123.14 387.31 123.768 386.405 124.449C385.501 125.131 384.724 125.563 384.65 125.465C384.576 125.367 385.206 124.739 386.11 124.058C387.015 123.376 387.792 122.944 387.865 123.042Z" fill="#50C39F"/>
    <path d="M384.872 128.059C384.973 127.984 385.59 128.593 386.253 129.474C386.917 130.354 387.333 131.115 387.232 131.191C387.132 131.267 386.515 130.657 385.851 129.776C385.288 128.82 384.772 128.135 384.872 128.059Z" fill="#50C39F"/>
    <path d="M379.298 129.651C379.225 129.553 379.854 128.925 380.759 128.244C381.663 127.562 382.44 127.13 382.514 127.228C382.587 127.326 381.958 127.954 381.053 128.635C380.075 129.219 379.372 129.749 379.298 129.651Z" fill="#50C39F"/>
    <path d="M383.125 130.757C382.951 130.735 383.031 130.214 383.211 129.618C383.392 129.021 383.546 128.599 383.72 128.621C383.894 128.643 383.814 129.164 383.634 129.76C383.379 130.259 383.125 130.757 383.125 130.757Z" fill="#50C39F"/>
    <path d="M387.901 126.851C387.874 127.025 387.351 126.958 386.828 126.892C386.306 126.825 385.884 126.683 385.81 126.585C385.837 126.412 386.359 126.478 386.882 126.545C387.405 126.611 387.827 126.753 387.901 126.851Z" fill="#50C39F"/>
    <path d="M383.866 124.214C383.691 124.192 383.671 123.747 383.651 123.302C383.731 122.782 383.785 122.434 383.885 122.359C383.985 122.283 384.08 122.826 384.1 123.271C384.194 123.814 384.04 124.237 383.866 124.214Z" fill="#50C39F"/>
    <path d="M381.682 125.707C381.655 125.881 381.206 125.912 380.684 125.845C380.161 125.779 379.739 125.637 379.665 125.539C379.692 125.365 380.141 125.334 380.663 125.4C381.186 125.467 381.608 125.609 381.682 125.707Z" fill="#50C39F"/>
    <path d="M324.158 28.8037C324.058 28.8794 323.441 28.2701 322.777 27.3893C322.113 26.5085 321.698 25.7477 321.798 25.672C321.899 25.5963 322.515 26.2057 323.179 27.0864C323.843 27.9672 324.258 28.728 324.158 28.8037Z" fill="#FFD24E"/>
    <path d="M329.833 27.1363C329.906 27.2342 329.277 27.862 328.372 28.5434C327.468 29.2248 326.691 29.657 326.617 29.5591C326.544 29.4612 327.173 28.8334 328.077 28.152C329.055 27.5684 329.833 27.1363 329.833 27.1363Z" fill="#FFD24E"/>
    <path d="M326.84 32.1535C326.94 32.0778 327.557 32.6871 328.221 33.5679C328.884 34.4487 329.3 35.2094 329.2 35.2852C329.099 35.3609 328.482 34.7515 327.819 33.8707C327.329 33.0121 326.84 32.1535 326.84 32.1535Z" fill="#FFD24E"/>
    <path d="M321.339 33.8433C321.266 33.7454 321.895 33.1176 322.799 32.4361C323.704 31.7547 324.481 31.3226 324.554 31.4205C324.628 31.5183 323.999 32.1462 323.094 32.8276C322.116 33.4112 321.339 33.8433 321.339 33.8433Z" fill="#FFD24E"/>
    <path d="M325.092 34.8514C324.918 34.8293 324.998 34.3085 325.179 33.7121C325.359 33.1157 325.513 32.6928 325.687 32.7149C325.862 32.7371 325.781 33.2578 325.601 33.8543C325.42 34.4507 325.166 34.9493 325.092 34.8514Z" fill="#FFD24E"/>
    <path d="M329.941 31.0434C329.915 31.217 329.392 31.1505 328.869 31.0841C328.347 31.0176 327.925 30.8754 327.851 30.7776C327.878 30.604 328.4 30.6704 328.923 30.7369C329.445 30.8034 329.968 30.8698 329.941 31.0434Z" fill="#FFD24E"/>
    <path d="M325.907 28.4068C325.732 28.3847 325.712 27.9397 325.692 27.4946C325.772 26.9739 325.825 26.6268 325.926 26.551C326.1 26.5732 326.12 27.0182 326.141 27.4632C326.235 28.0061 326.081 28.429 325.907 28.4068Z" fill="#FFD24E"/>
    <path d="M323.723 29.8989C323.696 30.0724 323.247 30.1038 322.725 30.0374C322.202 29.9709 321.78 29.8287 321.706 29.7309C321.733 29.5573 322.182 29.5259 322.704 29.5924C323.227 29.6588 323.649 29.801 323.723 29.8989Z" fill="#FFD24E"/>
    <path d="M115.129 67.3168C111.769 65.9998 109.667 69.5293 109.667 69.5293L111.651 70.8301C112.65 68.6063 116.041 69.2437 116.041 69.2437L115.129 67.3168Z" fill="#FFD24E"/>
    <path d="M54.8827 142.545C51.5234 141.228 49.4215 144.758 49.4215 144.758L51.4052 146.059C52.4043 143.835 55.7949 144.472 55.7949 144.472L54.8827 142.545Z" fill="#50C39F"/>
    <path d="M55.8496 78.2341C60.3371 75.0794 56.9658 68.562 56.9658 68.562L53.5582 69.9978C55.8709 73.5557 52.4144 77.6159 52.4144 77.6159L55.8496 78.2341Z" fill="#50C39F"/>
    <path d="M45.1111 106.158C43.8434 108.267 45.6962 110.092 45.6962 110.092L46.8555 108.861C45.642 107.979 46.4871 105.722 46.4871 105.722L45.1111 106.158Z" fill="#FFD24E"/>
    <path d="M122.012 37.7648C119.961 35.8343 117.404 37.3518 117.404 37.3518L118.483 38.8693C119.936 37.8704 122.147 39.3303 122.147 39.3303L122.012 37.7648Z" fill="#50C39F"/>
    <path d="M26.4811 75.9601C24.4299 74.0296 21.8732 75.5471 21.8732 75.5471L22.952 77.0646C24.4048 76.0657 26.6161 77.5256 26.6161 77.5256L26.4811 75.9601Z" fill="#FFD24E"/>
    <path d="M22.961 147.547C26.1546 150.296 29.6028 147.218 29.6028 147.218L27.8142 144.916C25.9536 147 22.5779 144.977 22.5779 144.977L22.961 147.547Z" fill="#FFD24E"/>
    <path d="M78.0945 47.8751C79.5414 46.0796 77.8958 43.8352 77.8958 43.8352L76.6679 44.741C77.8307 45.8854 76.7567 47.9519 76.7567 47.9519L78.0945 47.8751Z" fill="#FFD24E"/>
    <path d="M94.2764 43.2383C94.3782 43.3123 93.9757 44.0802 93.3275 44.9724C92.6792 45.8647 92.0733 46.4847 91.9715 46.4108C91.8697 46.3368 92.2721 45.5689 92.9204 44.6767C93.4966 43.8836 94.1746 43.1644 94.2764 43.2383Z" fill="#50C39F"/>
    <path d="M91.0226 38.2997C91.0946 38.2006 91.8791 38.6191 92.7951 39.2846C93.7111 39.9501 94.3515 40.5669 94.2795 40.666C94.2075 40.7652 93.423 40.3467 92.507 39.6812C91.591 39.0156 90.9505 38.3989 91.0226 38.2997Z" fill="#50C39F"/>
    <path d="M96.6955 39.6949C96.5938 39.621 96.9962 38.8531 97.6444 37.9608C98.2927 37.0686 98.8987 36.4486 99.0004 36.5225C99.1022 36.5965 98.6998 37.3644 98.0515 38.2566C97.3015 39.0749 96.7973 39.7689 96.6955 39.6949Z" fill="#50C39F"/>
    <path d="M99.8476 44.5596C99.7756 44.6587 98.9911 44.2402 98.0751 43.5747C97.1591 42.9092 96.5186 42.2924 96.5907 42.1933C96.6627 42.0941 97.4472 42.5126 98.3632 43.1782C99.2072 43.9428 99.9196 44.4604 99.8476 44.5596Z" fill="#50C39F"/>
    <path d="M99.7865 40.5773C99.8163 40.7504 99.2948 40.826 98.6716 40.8276C98.0484 40.8292 97.599 40.8057 97.5693 40.6326C97.5395 40.4595 98.061 40.3839 98.6842 40.3823C99.2353 40.4798 99.7865 40.5773 99.7865 40.5773Z" fill="#50C39F"/>
    <path d="M94.6553 37.1522C94.8291 37.127 94.9183 37.6463 95.0076 38.1655C95.0968 38.6848 95.0843 39.1301 95.0123 39.2292C94.8385 39.2544 94.7492 38.7352 94.66 38.2159C94.5707 37.6967 94.5832 37.2514 94.6553 37.1522Z" fill="#50C39F"/>
    <path d="M93.3134 41.7814C93.3431 41.9545 92.9235 42.104 92.5038 42.2535C91.9824 42.3291 91.6348 42.3795 91.533 42.3055C91.4312 42.2316 91.9229 41.9829 92.3425 41.8334C92.8342 41.5847 93.2836 41.6083 93.3134 41.7814Z" fill="#50C39F"/>
    <path d="M95.3787 43.4335C95.5525 43.4083 95.7138 43.8284 95.8031 44.3477C95.8923 44.8669 95.8798 45.3122 95.8078 45.4114C95.634 45.4366 95.4727 45.0165 95.3834 44.4972C95.2942 43.9779 95.3067 43.5326 95.3787 43.4335Z" fill="#50C39F"/>
    <path d="M19.5284 126.775C19.6302 126.849 19.2278 127.617 18.5795 128.51C17.9313 129.402 17.3253 130.022 17.2235 129.948C17.1217 129.874 17.5241 129.106 18.1724 128.214C18.8206 127.322 19.4266 126.702 19.5284 126.775Z" fill="#FFD24E"/>
    <path d="M16.2746 121.837C16.3466 121.738 17.1311 122.156 18.0471 122.822C18.9631 123.487 19.6035 124.104 19.5315 124.203C19.4595 124.302 18.675 123.884 17.759 123.218C16.915 122.454 16.2746 121.837 16.2746 121.837Z" fill="#FFD24E"/>
    <path d="M21.9476 123.232C21.8458 123.158 22.2482 122.39 22.8965 121.498C23.5447 120.606 24.1507 119.986 24.2525 120.06C24.3543 120.134 23.9518 120.901 23.3036 121.794C22.6256 122.513 21.9476 123.232 21.9476 123.232Z" fill="#FFD24E"/>
    <path d="M25.1717 127.998C25.0997 128.097 24.3152 127.678 23.3992 127.013C22.4831 126.347 21.8427 125.73 21.9147 125.631C21.9868 125.532 22.7712 125.951 23.6873 126.616C24.5313 127.381 25.1717 127.998 25.1717 127.998Z" fill="#FFD24E"/>
    <path d="M25.0385 124.114C25.0683 124.288 24.5469 124.363 23.9237 124.365C23.3005 124.366 22.8511 124.343 22.8213 124.17C22.7916 123.997 23.313 123.921 23.9362 123.919C24.5594 123.918 25.1106 124.015 25.0385 124.114Z" fill="#FFD24E"/>
    <path d="M19.9793 120.59C20.1531 120.565 20.2424 121.084 20.3316 121.603C20.4209 122.123 20.4084 122.568 20.3363 122.667C20.1625 122.692 20.0733 122.173 19.984 121.654C19.8948 121.135 19.8055 120.615 19.9793 120.59Z" fill="#FFD24E"/>
    <path d="M18.6374 125.219C18.6672 125.392 18.2475 125.542 17.8279 125.692C17.3065 125.767 16.9589 125.817 16.8571 125.744C16.8273 125.57 17.247 125.421 17.6666 125.271C18.1583 125.023 18.6077 125.046 18.6374 125.219Z" fill="#FFD24E"/>
    <path d="M20.7028 126.871C20.8766 126.846 21.0379 127.266 21.1271 127.786C21.2164 128.305 21.2038 128.75 21.1318 128.849C20.958 128.875 20.7967 128.454 20.7075 127.935C20.6182 127.416 20.6307 126.971 20.7028 126.871Z" fill="#FFD24E"/>
    <path d="M205.018 312.883C282.338 312.883 345.018 250.203 345.018 172.883C345.018 95.5634 282.338 32.8833 205.018 32.8833C127.698 32.8833 65.0179 95.5634 65.0179 172.883C65.0179 250.203 127.698 312.883 205.018 312.883Z" fill="#FFFBDE"/>
    <mask id="mask0_379_8075" style="mask-type:alpha" maskUnits="userSpaceOnUse" x="65" y="32" width="281" height="281">
        <path d="M205.018 312.883C282.338 312.883 345.018 250.203 345.018 172.883C345.018 95.5634 282.338 32.8833 205.018 32.8833C127.698 32.8833 65.0179 95.5634 65.0179 172.883C65.0179 250.203 127.698 312.883 205.018 312.883Z" fill="white"/>
    </mask>
    <g mask="url(#mask0_379_8075)">
        <g opacity="0.7">
            <rect x="202.501" y="97.7129" width="13.0345" height="9.89362" fill="#FFD24E"/>
            <rect x="202.501" y="97.7129" width="1.55172" height="9.89362" fill="#FFD24E"/>
            <path d="M217.087 98.0322H200.639L202.077 94.4049C202.202 94.0899 202.504 93.8833 202.84 93.8833H214.885C215.221 93.8833 215.524 94.0899 215.649 94.4049L217.087 98.0322Z" fill="#D2E1F9"/>
            <path d="M208.19 101.862H204.88C204.423 101.862 204.052 102.255 204.052 102.739V108.005C204.052 108.49 204.423 108.883 204.88 108.883H208.19C208.647 108.883 209.018 108.49 209.018 108.005V102.739C209.018 102.255 208.647 101.862 208.19 101.862Z" fill="#425060"/>
            <rect x="207.218" y="93.8853" width="3.28966" height="4.04774" fill="#50C39F"/>
            <path d="M217.087 97.9325H213.797L212.975 93.8848H214.885C215.222 93.8848 215.524 94.0863 215.649 94.3937L217.087 97.9325Z" fill="#50C39F"/>
            <path d="M203.928 97.9325H200.639L202.077 94.3937C202.202 94.0863 202.504 93.8848 202.84 93.8848H204.751L203.928 97.9325Z" fill="#50C39F"/>
            <path d="M216.264 100.178H213.797V98.0337H217.087V99.4635C217.087 99.8583 216.719 100.178 216.264 100.178Z" fill="#3BB28A"/>
            <rect x="207.218" y="98.0342" width="3.28966" height="2.14468" fill="#3BB28A"/>
            <path d="M203.928 100.178H201.461C201.007 100.178 200.639 99.8583 200.639 99.4635V98.0337H203.928V100.178Z" fill="#3BB28A"/>
            <rect x="204.052" y="98.0342" width="3.2069" height="2.14468" fill="#D2E1F9"/>
            <rect x="210.466" y="98.0342" width="3.2069" height="2.14468" fill="#D2E1F9"/>
            <path d="M217.2 108.883H200.836C200.384 108.883 200.018 108.526 200.018 108.085C200.018 107.645 200.384 107.288 200.836 107.288H217.2C217.652 107.288 218.018 107.645 218.018 108.085C218.018 108.526 217.652 108.883 217.2 108.883Z" fill="#425060"/>
            <path d="M212.866 101.862H210.446C210 101.862 209.639 102.233 209.639 102.692V105.181C209.639 105.639 210 106.011 210.446 106.011H212.866C213.312 106.011 213.673 105.639 213.673 105.181V102.692C213.673 102.233 213.312 101.862 212.866 101.862Z" fill="#50C39F"/>
        </g>
        <rect x="77.5341" y="102.996" width="138" height="22" transform="rotate(26 77.5341 102.996)" fill="white"/>
        <rect x="180.748" y="160.011" width="149" height="22" transform="rotate(3 180.748 160.011)" fill="white"/>
        <rect x="201.993" y="173.853" width="129" height="22" transform="rotate(-63 201.993 173.853)" fill="white"/>
        <rect x="121.846" y="292.912" width="132" height="22" transform="rotate(-66 121.846 292.912)" fill="white"/>
        <rect x="96.3628" y="212.585" width="33.3103" height="25.0638" fill="#FFD24E"/>
        <rect x="96.3628" y="212.585" width="3.96552" height="25.0638" fill="#FFD24E"/>
        <path d="M133.639 213.394H91.6041L95.279 204.205C95.5982 203.407 96.3711 202.883 97.2304 202.883H128.012C128.871 202.883 129.644 203.407 129.963 204.205L133.639 213.394Z" fill="#D2E1F9"/>
        <path d="M110.903 223.096H102.443C101.275 223.096 100.328 224.092 100.328 225.32V238.66C100.328 239.888 101.275 240.883 102.443 240.883H110.903C112.071 240.883 113.018 239.888 113.018 238.66V225.32C113.018 224.092 112.071 223.096 110.903 223.096Z" fill="#425060"/>
        <rect x="108.418" y="202.888" width="8.4069" height="10.2543" fill="#50C39F"/>
        <path d="M133.639 213.141H125.232L123.13 202.887H128.012C128.872 202.887 129.645 203.398 129.964 204.176L133.639 213.141Z" fill="#50C39F"/>
        <path d="M100.011 213.141H91.6041L95.279 204.176C95.5982 203.398 96.3711 202.887 97.2304 202.887H102.113L100.011 213.141Z" fill="#50C39F"/>
        <path d="M131.537 218.831H125.232V213.397H133.639V217.02C133.639 218.02 132.698 218.831 131.537 218.831Z" fill="#3BB28A"/>
        <rect x="108.418" y="213.398" width="8.4069" height="5.43319" fill="#3BB28A"/>
        <path d="M100.011 218.831H93.7059C92.5452 218.831 91.6041 218.02 91.6041 217.02V213.397H100.011V218.831Z" fill="#3BB28A"/>
        <rect x="100.328" y="213.398" width="8.1954" height="5.43319" fill="#D2E1F9"/>
        <rect x="116.719" y="213.398" width="8.1954" height="5.43319" fill="#D2E1F9"/>
        <path d="M133.927 240.883H92.1089C90.9541 240.883 90.0179 239.978 90.0179 238.862C90.0179 237.746 90.9541 236.841 92.1089 236.841H133.927C135.082 236.841 136.018 237.746 136.018 238.862C136.018 239.978 135.082 240.883 133.927 240.883Z" fill="#425060"/>
        <path d="M122.852 223.096H116.666C115.527 223.096 114.604 224.037 114.604 225.198V231.505C114.604 232.666 115.527 233.607 116.666 233.607H122.852C123.991 233.607 124.914 232.666 124.914 231.505V225.198C124.914 224.037 123.991 223.096 122.852 223.096Z" fill="#50C39F"/>
        <g opacity="0.8">
            <rect x="83.6041" y="156.745" width="18.8276" height="13.8511" fill="#FFD24E"/>
            <rect x="83.6041" y="156.745" width="2.24138" height="13.8511" fill="#FFD24E"/>
            <path d="M104.673 157.192H80.9145L82.9916 152.114C83.172 151.673 83.6089 151.383 84.0946 151.383H101.493C101.979 151.383 102.415 151.673 102.596 152.114L104.673 157.192Z" fill="#D2E1F9"/>
            <path d="M91.8225 162.554H87.0409C86.3808 162.554 85.8455 163.104 85.8455 163.782V171.155C85.8455 171.833 86.3808 172.383 87.0409 172.383H91.8225C92.4827 172.383 93.0179 171.833 93.0179 171.155V163.782C93.0179 163.104 92.4827 162.554 91.8225 162.554Z" fill="#425060"/>
            <rect x="90.418" y="151.386" width="4.75172" height="5.66684" fill="#50C39F"/>
            <path d="M104.673 157.053H99.9214L98.7335 151.386H101.493C101.979 151.386 102.416 151.668 102.596 152.098L104.673 157.053Z" fill="#50C39F"/>
            <path d="M85.6662 157.053H80.9145L82.9916 152.098C83.172 151.668 83.6089 151.386 84.0946 151.386H86.8541L85.6662 157.053Z" fill="#50C39F"/>
            <path d="M103.485 160.196H99.9214V157.194H104.673V159.196C104.673 159.748 104.141 160.196 103.485 160.196Z" fill="#3BB28A"/>
            <rect x="90.418" y="157.194" width="4.75172" height="3.00255" fill="#3BB28A"/>
            <path d="M85.6662 160.196H82.1024C81.4464 160.196 80.9145 159.748 80.9145 159.196V157.194H85.6662V160.196Z" fill="#3BB28A"/>
            <rect x="85.8455" y="157.194" width="4.63218" height="3.00255" fill="#D2E1F9"/>
            <rect x="95.1099" y="157.194" width="4.63218" height="3.00255" fill="#D2E1F9"/>
            <path d="M104.836 172.383H81.1998C80.5471 172.383 80.0179 171.883 80.0179 171.266C80.0179 170.65 80.5471 170.149 81.1998 170.149H104.836C105.489 170.149 106.018 170.65 106.018 171.266C106.018 171.883 105.489 172.383 104.836 172.383Z" fill="#425060"/>
            <path d="M98.5766 162.554H95.08C94.4364 162.554 93.9145 163.074 93.9145 163.715V167.201C93.9145 167.842 94.4364 168.362 95.08 168.362H98.5766C99.2202 168.362 99.7421 167.842 99.7421 167.201V163.715C99.7421 163.074 99.2202 162.554 98.5766 162.554Z" fill="#50C39F"/>
        </g>
        <g opacity="0.8">
            <rect x="139.708" y="80.7769" width="24.6207" height="17.8085" fill="#FFD24E"/>
            <rect x="139.708" y="80.7769" width="2.93103" height="17.8085" fill="#FFD24E"/>
            <path d="M167.259 81.3514H136.19L138.907 74.8222C139.143 74.2552 139.714 73.8833 140.349 73.8833H163.101C163.736 73.8833 164.307 74.2552 164.543 74.8222L167.259 81.3514Z" fill="#D2E1F9"/>
            <path d="M150.455 88.2451H144.202C143.339 88.2451 142.639 88.9525 142.639 89.8249V99.3036C142.639 100.176 143.339 100.883 144.202 100.883H150.455C151.318 100.883 152.018 100.176 152.018 99.3036V89.8249C152.018 88.9525 151.318 88.2451 150.455 88.2451Z" fill="#425060"/>
            <rect x="148.618" y="73.8867" width="6.21379" height="7.28594" fill="#50C39F"/>
            <path d="M167.259 81.1722H161.046L159.492 73.8862H163.101C163.736 73.8862 164.307 74.2491 164.543 74.8023L167.259 81.1722Z" fill="#50C39F"/>
            <path d="M142.404 81.1722H136.19L138.907 74.8023C139.143 74.2491 139.714 73.8862 140.349 73.8862H143.958L142.404 81.1722Z" fill="#50C39F"/>
            <path d="M165.706 85.2144H161.046V81.354H167.259V83.9276C167.259 84.6383 166.564 85.2144 165.706 85.2144Z" fill="#3BB28A"/>
            <rect x="148.618" y="81.3545" width="6.21379" height="3.86043" fill="#3BB28A"/>
            <path d="M142.404 85.2144H137.744C136.886 85.2144 136.19 84.6383 136.19 83.9276V81.354H142.404V85.2144Z" fill="#3BB28A"/>
            <rect x="142.639" y="81.3545" width="6.05747" height="3.86043" fill="#D2E1F9"/>
            <rect x="154.754" y="81.3545" width="6.05747" height="3.86043" fill="#D2E1F9"/>
            <path d="M167.472 100.883H136.563C135.71 100.883 135.018 100.24 135.018 99.4469C135.018 98.6538 135.71 98.0107 136.563 98.0107H167.472C168.326 98.0107 169.018 98.6538 169.018 99.4469C169.018 100.24 168.326 100.883 167.472 100.883Z" fill="#425060"/>
            <path d="M159.287 88.2451H154.715C153.873 88.2451 153.19 88.9139 153.19 89.7387V94.2196C153.19 95.0444 153.873 95.7132 154.715 95.7132H159.287C160.129 95.7132 160.811 95.0444 160.811 94.2196V89.7387C160.811 88.9139 160.129 88.2451 159.287 88.2451Z" fill="#50C39F"/>
        </g>
        <g opacity="0.7">
            <rect x="279.018" y="99.3833" width="16" height="12" fill="#FFD24E"/>
            <rect x="279.018" y="99.3833" width="2" height="12" fill="#FFD24E"/>
            <path d="M297.018 99.3833H277.018L278.766 95.0119C278.918 94.6323 279.286 94.3833 279.695 94.3833H294.341C294.75 94.3833 295.117 94.6323 295.269 95.0119L297.018 99.3833Z" fill="#D2E1F9"/>
            <path d="M286.018 104.383H282.018C281.466 104.383 281.018 104.831 281.018 105.383V111.383C281.018 111.936 281.466 112.383 282.018 112.383H286.018C286.57 112.383 287.018 111.936 287.018 111.383V105.383C287.018 104.831 286.57 104.383 286.018 104.383Z" fill="#425060"/>
            <rect x="285.145" y="94.3857" width="4.06369" height="4.85729" fill="#50C39F"/>
            <path d="M297.336 99.2425H293.273L292.257 94.3853H294.617C295.032 94.3853 295.406 94.6271 295.56 94.9959L297.336 99.2425Z" fill="#50C39F"/>
            <path d="M281.082 99.2425H277.018L278.794 94.9959C278.949 94.6271 279.322 94.3853 279.738 94.3853H282.098L281.082 99.2425Z" fill="#50C39F"/>
            <path d="M296.32 102.245H293.273V99.3853H297.336V101.292C297.336 101.818 296.882 102.245 296.32 102.245Z" fill="#3BB28A"/>
            <rect x="285.145" y="99.3857" width="4.06369" height="2.85957" fill="#3BB28A"/>
            <path d="M281.082 102.245H278.034C277.473 102.245 277.018 101.818 277.018 101.292V99.3853H281.082V102.245Z" fill="#3BB28A"/>
            <rect x="281.018" y="99.3857" width="3.84828" height="2.85957" fill="#D2E1F9"/>
            <rect x="288.714" y="99.3857" width="3.84828" height="2.85957" fill="#D2E1F9"/>
            <path d="M297.018 113.383H277.018C276.466 113.383 276.018 112.936 276.018 112.383C276.018 111.831 276.466 111.383 277.018 111.383H297.018C297.57 111.383 298.018 111.831 298.018 112.383C298.018 112.936 297.57 113.383 297.018 113.383Z" fill="#425060"/>
            <path d="M292.018 104.383H289.018C288.466 104.383 288.018 104.831 288.018 105.383V108.383C288.018 108.936 288.466 109.383 289.018 109.383H292.018C292.57 109.383 293.018 108.936 293.018 108.383V105.383C293.018 104.831 292.57 104.383 292.018 104.383Z" fill="#50C39F"/>
        </g>
        <g opacity="0.8">
            <rect x="199.604" y="273.745" width="18.8276" height="13.8511" fill="#FFD24E"/>
            <rect x="199.604" y="273.745" width="2.24138" height="13.8511" fill="#FFD24E"/>
            <path d="M220.673 274.192H196.914L198.992 269.114C199.172 268.673 199.609 268.383 200.095 268.383H217.493C217.979 268.383 218.415 268.673 218.596 269.114L220.673 274.192Z" fill="#D2E1F9"/>
            <path d="M207.823 279.554H203.041C202.381 279.554 201.846 280.104 201.846 280.782V288.155C201.846 288.833 202.381 289.383 203.041 289.383H207.823C208.483 289.383 209.018 288.833 209.018 288.155V280.782C209.018 280.104 208.483 279.554 207.823 279.554Z" fill="#425060"/>
            <rect x="206.418" y="268.386" width="4.75172" height="5.66684" fill="#50C39F"/>
            <path d="M220.673 274.053H215.921L214.733 268.386H217.493C217.979 268.386 218.416 268.668 218.596 269.098L220.673 274.053Z" fill="#50C39F"/>
            <path d="M201.666 274.053H196.914L198.992 269.098C199.172 268.668 199.609 268.386 200.095 268.386H202.854L201.666 274.053Z" fill="#50C39F"/>
            <path d="M219.485 277.196H215.921V274.194H220.673V276.196C220.673 276.748 220.141 277.196 219.485 277.196Z" fill="#3BB28A"/>
            <rect x="206.418" y="274.194" width="4.75172" height="3.00255" fill="#3BB28A"/>
            <path d="M201.666 277.196H198.102C197.446 277.196 196.914 276.748 196.914 276.196V274.194H201.666V277.196Z" fill="#3BB28A"/>
            <rect x="201.846" y="274.194" width="4.63218" height="3.00255" fill="#D2E1F9"/>
            <rect x="211.11" y="274.194" width="4.63218" height="3.00255" fill="#D2E1F9"/>
            <path d="M220.836 289.383H197.2C196.547 289.383 196.018 288.883 196.018 288.266C196.018 287.65 196.547 287.149 197.2 287.149H220.836C221.489 287.149 222.018 287.65 222.018 288.266C222.018 288.883 221.489 289.383 220.836 289.383Z" fill="#425060"/>
            <path d="M214.577 279.554H211.08C210.436 279.554 209.914 280.074 209.914 280.715V284.201C209.914 284.842 210.436 285.362 211.08 285.362H214.577C215.22 285.362 215.742 284.842 215.742 284.201V280.715C215.742 280.074 215.22 279.554 214.577 279.554Z" fill="#50C39F"/>
        </g>
        <g opacity="0.7">
            <rect x="243.708" y="222.777" width="24.6207" height="17.8085" fill="#FFD24E"/>
            <rect x="243.708" y="222.777" width="2.93103" height="17.8085" fill="#FFD24E"/>
            <path d="M271.259 223.351H240.19L242.907 216.822C243.143 216.255 243.714 215.883 244.349 215.883H267.101C267.736 215.883 268.307 216.255 268.543 216.822L271.259 223.351Z" fill="#D2E1F9"/>
            <path d="M254.455 230.245H248.202C247.339 230.245 246.639 230.952 246.639 231.825V241.304C246.639 242.176 247.339 242.883 248.202 242.883H254.455C255.318 242.883 256.018 242.176 256.018 241.304V231.825C256.018 230.952 255.318 230.245 254.455 230.245Z" fill="#425060"/>
            <rect x="252.618" y="215.887" width="6.21379" height="7.28594" fill="#50C39F"/>
            <path d="M271.259 223.172H265.046L263.492 215.886H267.101C267.736 215.886 268.307 216.249 268.543 216.802L271.259 223.172Z" fill="#50C39F"/>
            <path d="M246.404 223.172H240.19L242.907 216.802C243.143 216.249 243.714 215.886 244.349 215.886H247.958L246.404 223.172Z" fill="#50C39F"/>
            <path d="M269.706 227.214H265.046V223.354H271.259V225.928C271.259 226.638 270.564 227.214 269.706 227.214Z" fill="#3BB28A"/>
            <rect x="252.618" y="223.354" width="6.21379" height="3.86043" fill="#3BB28A"/>
            <path d="M246.404 227.214H241.744C240.886 227.214 240.19 226.638 240.19 225.928V223.354H246.404V227.214Z" fill="#3BB28A"/>
            <rect x="246.639" y="223.354" width="6.05747" height="3.86043" fill="#D2E1F9"/>
            <rect x="258.754" y="223.354" width="6.05747" height="3.86043" fill="#D2E1F9"/>
            <path d="M271.472 242.883H240.563C239.71 242.883 239.018 242.24 239.018 241.447C239.018 240.654 239.71 240.011 240.563 240.011H271.472C272.326 240.011 273.018 240.654 273.018 241.447C273.018 242.24 272.326 242.883 271.472 242.883Z" fill="#425060"/>
            <path d="M263.287 230.245H258.715C257.873 230.245 257.19 230.914 257.19 231.739V236.22C257.19 237.044 257.873 237.713 258.715 237.713H263.287C264.129 237.713 264.811 237.044 264.811 236.22V231.739C264.811 230.914 264.129 230.245 263.287 230.245Z" fill="#50C39F"/>
        </g>
        <path fill-rule="evenodd" clip-rule="evenodd" d="M149.018 242.402C149.018 238.808 151.71 235.883 155.018 235.883C158.326 235.883 161.018 238.808 161.018 242.402C161.018 246.863 155.649 253.412 155.42 253.689C155.206 253.948 154.831 253.948 154.616 253.689C154.387 253.412 149.018 246.863 149.018 242.402ZM152.018 242.883C152.018 244.538 153.364 245.883 155.018 245.883C156.672 245.883 158.018 244.538 158.018 242.883C158.018 241.229 156.672 239.883 155.018 239.883C153.364 239.883 152.018 241.229 152.018 242.883Z" fill="#50C39F"/>
        <rect x="160.352" y="230.766" width="3" height="5" rx="1.5" transform="rotate(24 160.352 230.766)" fill="#FFD24E"/>
        <rect x="164.013" y="222.544" width="3" height="5" rx="1.5" transform="rotate(24 164.013 222.544)" fill="#FFD24E"/>
        <rect x="167.674" y="214.322" width="3" height="5" rx="1.5" transform="rotate(24 167.674 214.322)" fill="#FFD24E"/>
        <rect x="171.334" y="206.101" width="3" height="5" rx="1.5" transform="rotate(24 171.334 206.101)" fill="#FFD24E"/>
        <rect x="174.995" y="197.878" width="3" height="5" rx="1.5" transform="rotate(24 174.995 197.878)" fill="#FFD24E"/>
        <rect x="178.655" y="189.657" width="3" height="5" rx="1.5" transform="rotate(24 178.655 189.657)" fill="#FFD24E"/>
        <rect x="182.316" y="181.435" width="3" height="5" rx="1.5" transform="rotate(24 182.316 181.435)" fill="#FFD24E"/>
        <rect x="185.977" y="173.213" width="3" height="5" rx="1.5" transform="rotate(24 185.977 173.213)" fill="#FFD24E"/>
        <rect x="195.693" y="170.364" width="3" height="5" rx="1.5" transform="rotate(94 195.693 170.364)" fill="#FFD24E"/>
        <rect x="204.667" y="170.992" width="3" height="5" rx="1.5" transform="rotate(94 204.667 170.992)" fill="#FFD24E"/>
        <rect x="213.64" y="171.62" width="3" height="5" rx="1.5" transform="rotate(94 213.64 171.62)" fill="#FFD24E"/>
        <rect x="222.614" y="172.248" width="3" height="5" rx="1.5" transform="rotate(94 222.614 172.248)" fill="#FFD24E"/>
        <rect x="231.588" y="172.876" width="3" height="5" rx="1.5" transform="rotate(94 231.588 172.876)" fill="#FFD24E"/>
        <rect x="240.561" y="173.504" width="3" height="5" rx="1.5" transform="rotate(94 240.561 173.504)" fill="#FFD24E"/>
        <rect x="249.535" y="174.132" width="3" height="5" rx="1.5" transform="rotate(94 249.535 174.132)" fill="#FFD24E"/>
        <rect x="258.508" y="174.76" width="3" height="5" rx="1.5" transform="rotate(94 258.508 174.76)" fill="#FFD24E"/>
        <rect x="267.116" y="174.76" width="3" height="5" rx="1.5" transform="rotate(94 267.116 174.76)" fill="#FFD24E"/>
    </g>
    <path fill-rule="evenodd" clip-rule="evenodd" d="M317.819 154.769H315.331V154.397H317.819V154.769Z" fill="#F29E3B"/>
    <path fill-rule="evenodd" clip-rule="evenodd" d="M317.819 155.883H315.331V155.512H317.819V155.883Z" fill="#F29E3B"/>
    <path fill-rule="evenodd" clip-rule="evenodd" d="M302.918 157.74H320.636C320.847 157.74 321.018 157.574 321.018 157.369C321.018 157.164 320.847 156.998 320.636 156.998H302.918C302.707 156.998 302.536 157.164 302.536 157.369C302.536 157.574 302.707 157.74 302.918 157.74Z" fill="#373B55"/>
    <path fill-rule="evenodd" clip-rule="evenodd" d="M290.598 131.369C290.598 131.369 289.248 133.105 290.976 134.399C292.704 135.694 292.141 132.548 292.141 132.548L291.37 131.768L290.598 131.369Z" fill="#262A42"/>
    <path fill-rule="evenodd" clip-rule="evenodd" d="M291.121 147.239C290.184 147.502 286.915 148.616 285.995 148.778C285.076 148.94 283.397 149.615 283.131 150.117C282.867 150.62 282.738 151.105 284.897 151.426C284.897 151.426 285.096 151.412 284.834 151.027C284.572 150.642 285.823 150.273 286.117 150.277C286.393 150.281 289.634 149.85 291.964 149.513C292.323 149.461 292.694 149.288 292.944 149.009C293.47 148.424 293.801 147.541 294.274 146.393C294.966 144.718 295.495 143.35 295.82 142.174C295.82 142.174 296.552 139.951 295.797 139.233C294.826 138.31 293.641 138.874 293.182 140.73C292.724 142.587 291.713 146.425 291.121 147.239Z" fill="#F5927E"/>
    <path fill-rule="evenodd" clip-rule="evenodd" d="M280.871 154.398L281.476 151.833V151.834C281.478 151.834 281.857 150.714 282.65 150.714H285.476V149.94H282.65C281.308 149.94 280.78 151.552 280.758 151.621L280.144 154.214L280.871 154.398Z" fill="#8999A5"/>
    <path fill-rule="evenodd" clip-rule="evenodd" d="M282.472 150.683H286.347C286.651 150.683 286.897 150.434 286.897 150.126C286.897 149.818 286.651 149.569 286.347 149.569H282.472C282.168 149.569 281.922 149.818 281.922 150.126C281.922 150.434 282.168 150.683 282.472 150.683Z" fill="#373B55"/>
    <path fill-rule="evenodd" clip-rule="evenodd" d="M295.825 142.512C295.52 143.624 295.239 145.038 294.603 146.598L291.873 145.118C292.309 143.708 292.975 142.136 293.233 141.082C293.684 139.245 294.849 138.686 295.803 139.601C296.544 140.311 295.825 142.512 295.825 142.512Z" fill="#FFD24E"/>
    <path fill-rule="evenodd" clip-rule="evenodd" d="M309.644 181.512C309.671 181.512 309.692 181.49 309.692 181.462V161.876C309.692 161.848 309.671 161.826 309.644 161.826C309.618 161.826 309.597 161.848 309.597 161.876V181.462C309.597 181.49 309.618 181.512 309.644 181.512Z" fill="#9FACB9"/>
    <path fill-rule="evenodd" clip-rule="evenodd" d="M300.095 171.904H318.838C318.864 171.904 318.885 171.882 318.885 171.855C318.885 171.827 318.864 171.805 318.838 171.805H300.095C300.069 171.805 300.048 171.827 300.048 171.855C300.048 171.882 300.069 171.904 300.095 171.904Z" fill="#9FACB9"/>
    <path fill-rule="evenodd" clip-rule="evenodd" d="M307.204 181.141C307.225 181.141 307.244 181.126 307.25 181.104L312.131 162.26C312.138 162.234 312.122 162.207 312.097 162.2C312.072 162.192 312.046 162.208 312.039 162.235L307.158 181.079C307.151 181.105 307.167 181.132 307.192 181.139C307.196 181.14 307.2 181.141 307.204 181.141Z" fill="#9FACB9"/>
    <path fill-rule="evenodd" clip-rule="evenodd" d="M318.483 174.455C318.504 174.455 318.523 174.44 318.528 174.418C318.535 174.392 318.52 174.364 318.495 174.357L300.463 169.257C300.438 169.249 300.412 169.266 300.405 169.292C300.398 169.318 300.413 169.345 300.438 169.353L318.471 174.453C318.475 174.455 318.479 174.455 318.483 174.455Z" fill="#9FACB9"/>
    <path fill-rule="evenodd" clip-rule="evenodd" d="M304.716 180.398C304.733 180.398 304.749 180.389 304.758 180.373L314.259 163.386C314.272 163.363 314.264 163.332 314.241 163.319C314.219 163.305 314.189 163.313 314.176 163.337L304.675 180.324C304.662 180.347 304.67 180.378 304.692 180.391C304.7 180.395 304.708 180.398 304.716 180.398Z" fill="#9FACB9"/>
    <path fill-rule="evenodd" clip-rule="evenodd" d="M317.772 176.683C317.788 176.683 317.804 176.674 317.813 176.658C317.826 176.635 317.818 176.604 317.796 176.59L301.541 166.661C301.519 166.648 301.49 166.655 301.476 166.68C301.463 166.704 301.471 166.734 301.493 166.748L317.748 176.677C317.756 176.681 317.764 176.683 317.772 176.683Z" fill="#9FACB9"/>
    <path fill-rule="evenodd" clip-rule="evenodd" d="M302.939 178.912C302.951 178.912 302.964 178.907 302.973 178.897L316.384 164.883C316.402 164.863 316.402 164.832 316.384 164.812C316.365 164.793 316.334 164.793 316.316 164.812L302.905 178.826C302.887 178.846 302.887 178.878 302.905 178.897C302.914 178.907 302.927 178.912 302.939 178.912Z" fill="#9FACB9"/>
    <path fill-rule="evenodd" clip-rule="evenodd" d="M316.35 178.912C316.362 178.912 316.374 178.907 316.384 178.897C316.402 178.878 316.402 178.846 316.384 178.826L302.973 164.812C302.954 164.793 302.924 164.793 302.905 164.812C302.887 164.832 302.887 164.863 302.905 164.883L316.316 178.897C316.325 178.907 316.337 178.912 316.35 178.912Z" fill="#9FACB9"/>
    <path fill-rule="evenodd" clip-rule="evenodd" d="M301.517 176.683C301.525 176.683 301.533 176.681 301.541 176.677L317.795 166.748C317.818 166.734 317.826 166.704 317.813 166.68C317.8 166.655 317.771 166.648 317.748 166.661L301.493 176.59C301.471 176.604 301.463 176.635 301.476 176.658C301.485 176.674 301.501 176.683 301.517 176.683Z" fill="#9FACB9"/>
    <path fill-rule="evenodd" clip-rule="evenodd" d="M314.217 180.398C314.225 180.398 314.234 180.395 314.241 180.391C314.264 180.378 314.272 180.347 314.259 180.324L304.758 163.337C304.745 163.313 304.715 163.305 304.692 163.319C304.67 163.332 304.662 163.363 304.675 163.386L314.176 180.373C314.185 180.389 314.201 180.398 314.217 180.398Z" fill="#9FACB9"/>
    <path fill-rule="evenodd" clip-rule="evenodd" d="M300.451 174.455C300.455 174.455 300.459 174.455 300.463 174.453L318.495 169.353C318.52 169.345 318.535 169.318 318.528 169.292C318.522 169.265 318.495 169.25 318.471 169.256L300.438 174.357C300.413 174.364 300.398 174.392 300.405 174.418C300.411 174.44 300.43 174.455 300.451 174.455Z" fill="#9FACB9"/>
    <path fill-rule="evenodd" clip-rule="evenodd" d="M312.085 181.141C312.089 181.141 312.093 181.14 312.097 181.139C312.122 181.132 312.138 181.105 312.131 181.079L307.25 162.234C307.243 162.208 307.217 162.192 307.192 162.199C307.166 162.206 307.151 162.233 307.158 162.26L312.039 181.104C312.045 181.126 312.064 181.141 312.085 181.141Z" fill="#9FACB9"/>
    <path fill-rule="evenodd" clip-rule="evenodd" d="M301.27 169.145L302.857 166.549C302.924 166.44 302.891 166.296 302.783 166.228L302.34 165.947C302.233 165.879 302.091 165.913 302.025 166.022L300.438 168.618C300.371 168.727 300.404 168.871 300.511 168.939L300.955 169.22C301.062 169.288 301.204 169.254 301.27 169.145Z" fill="#2F2F2F"/>
    <path fill-rule="evenodd" clip-rule="evenodd" d="M300.924 166C300.924 166 301.424 165.702 302.181 166.204L300.399 169.255C300.399 169.255 299.836 168.567 300.136 167.042L300.924 166Z" fill="#373B55"/>
    <path fill-rule="evenodd" clip-rule="evenodd" d="M280.887 154.397L281.412 152.709C281.776 151.966 282.528 151.488 283.335 151.488H286.542V150.683H283.335C282.223 150.683 281.189 151.349 280.7 152.38L280.679 152.434L280.144 154.151L280.887 154.397Z" fill="#9FACB9"/>
    <path fill-rule="evenodd" clip-rule="evenodd" d="M283.539 151.797H287.413C287.717 151.797 287.964 151.548 287.964 151.24C287.964 150.933 287.717 150.683 287.413 150.683H283.539C283.235 150.683 282.988 150.933 282.988 151.24C282.988 151.548 283.235 151.797 283.539 151.797Z" fill="#373B55"/>
    <path fill-rule="evenodd" clip-rule="evenodd" d="M298.517 150.01C293.385 153.966 290.344 157.42 290.455 158.44C290.731 160.984 294.759 164.056 300.322 167.026L301.114 166.006C301.114 166.006 295.254 160.891 293.923 158.818C293.923 158.818 292.704 157.782 296.735 156.91C301.143 155.957 300.544 150.01 300.544 150.01C300.544 150.01 298.865 149.854 298.517 150.01Z" fill="#344582"/>
    <path fill-rule="evenodd" clip-rule="evenodd" d="M293.295 137.361C293.295 137.361 293.78 137.661 294.091 138.425C294.091 138.425 295.07 138.496 295.783 137.423L294.973 136.569L293.295 137.361Z" fill="#F5927E"/>
    <path fill-rule="evenodd" clip-rule="evenodd" d="M290.819 133.344C290.819 133.344 290.598 136.528 292.071 137.529C293.016 138.171 295.281 136.603 295.281 136.603C295.281 136.603 295.846 135.713 295.777 134.545C295.415 132.946 294.13 132.395 293.131 132.495C292.132 132.594 290.984 132.624 290.819 133.344Z" fill="#F8AB98"/>
    <path fill-rule="evenodd" clip-rule="evenodd" d="M292.329 134.361C291.621 134.42 291.163 133.857 291.163 133.856V133.856L291.451 133.253C291.458 133.246 291.465 133.239 291.473 133.232C291.544 133.206 292.19 132.974 292.454 132.879C292.639 132.812 293.548 132.896 294.281 132.976C294.797 133.268 295.241 133.792 295.426 134.612C295.461 135.519 294.963 136.538 294.963 136.538C294.963 136.538 294.502 137.216 293.454 137.312C294.23 136.829 294.146 136.196 293.828 135.515C293.513 134.839 293.037 134.303 292.329 134.361Z" fill="#F5927E"/>
    <path fill-rule="evenodd" clip-rule="evenodd" d="M295.507 136.569C295.507 136.569 294.541 136.087 294.204 135.128C294.204 135.128 295.031 134.35 294.525 133.771C294.019 133.192 293.749 134.01 293.691 134.288C293.691 134.288 293.285 133.685 292.446 133.714C291.607 133.743 290.569 133.481 290.46 132.091C290.351 130.701 291.399 130.208 291.399 130.208C291.399 130.208 294.221 128.868 295.846 131.633C295.846 131.633 296.558 131.76 296.783 132.677C296.928 133.263 296.843 133.821 296.447 134.265C295.2 135.662 295.507 136.569 295.507 136.569Z" fill="#373B55"/>
    <path fill-rule="evenodd" clip-rule="evenodd" d="M295.783 136.94C295.783 136.94 294.313 138.002 293.295 138.371L293.993 139.169C293.993 139.169 295.498 138.364 296.138 137.257L295.783 136.94Z" fill="#D83058"/>
    <path fill-rule="evenodd" clip-rule="evenodd" d="M301.392 156.998L301.47 156.69L301.233 156.635C300.295 156.416 299.464 155.885 298.892 155.141L298.626 155.328C299.244 156.132 300.142 156.706 301.154 156.942L301.392 156.998Z" fill="#8999A5"/>
    <path fill-rule="evenodd" clip-rule="evenodd" d="M296.134 173.341L302.181 155.401L301.474 155.141L295.428 173.08L296.134 173.341Z" fill="#9FACB9"/>
    <path fill-rule="evenodd" clip-rule="evenodd" d="M295.984 173.341C296.213 173.341 296.428 173.19 296.509 172.949L301.082 159.266C301.185 158.96 301.033 158.625 300.743 158.517C300.453 158.41 300.135 158.569 300.033 158.875L295.459 172.558C295.357 172.864 295.509 173.199 295.799 173.307C295.86 173.33 295.923 173.341 295.984 173.341Z" fill="#E24D6B"/>
    <path fill-rule="evenodd" clip-rule="evenodd" d="M295.556 171.484C295.661 171.484 295.766 171.44 295.843 171.355C295.995 171.19 295.988 170.929 295.829 170.772L280.376 155.523L280.645 154.851H301.428C301.647 154.851 301.825 154.666 301.825 154.439C301.825 154.211 301.647 154.026 301.428 154.026H280.116L279.434 155.731L295.283 171.37C295.359 171.446 295.458 171.484 295.556 171.484Z" fill="#FFD24E"/>
    <path fill-rule="evenodd" clip-rule="evenodd" d="M307.867 171.669C307.867 172.592 308.583 173.34 309.467 173.34C310.35 173.34 311.066 172.592 311.066 171.669C311.066 170.746 310.35 169.998 309.467 169.998C308.583 169.998 307.867 170.746 307.867 171.669Z" fill="#9FACB9"/>
    <path fill-rule="evenodd" clip-rule="evenodd" d="M308.934 171.855C308.934 172.265 309.252 172.598 309.644 172.598C310.037 172.598 310.355 172.265 310.355 171.855C310.355 171.444 310.037 171.112 309.644 171.112C309.252 171.112 308.934 171.444 308.934 171.855Z" fill="#373B55"/>
    <path fill-rule="evenodd" clip-rule="evenodd" d="M298.456 171.851C298.471 171.854 298.486 171.855 298.502 171.855L309.414 171.848C309.541 171.847 309.645 171.766 309.644 171.665C309.644 171.565 309.541 171.483 309.413 171.483L298.502 171.491C298.374 171.491 298.271 171.572 298.271 171.673C298.271 171.761 298.35 171.835 298.456 171.851Z" fill="#D83058"/>
    <path fill-rule="evenodd" clip-rule="evenodd" d="M298.67 172.226C298.891 172.226 299.069 172.043 299.069 171.817C299.069 165.94 303.734 161.159 309.467 161.159C315.2 161.159 319.864 165.94 319.864 171.817C319.864 172.043 320.043 172.226 320.263 172.226C320.484 172.226 320.663 172.043 320.663 171.817C320.663 165.489 315.64 160.34 309.467 160.34C303.294 160.34 298.271 165.489 298.271 171.817C298.271 172.043 298.45 172.226 298.67 172.226Z" fill="#D83058"/>
    <path fill-rule="evenodd" clip-rule="evenodd" d="M309.467 180.242C313.981 180.242 317.641 176.487 317.641 171.855C317.641 167.223 313.981 163.467 309.467 163.467C304.952 163.467 301.292 167.223 301.292 171.855C301.292 176.487 304.952 180.242 309.467 180.242ZM309.467 161.826C314.865 161.826 319.241 166.316 319.241 171.855C319.241 177.393 314.865 181.883 309.467 181.883C304.069 181.883 299.693 177.393 299.693 171.855C299.693 166.316 304.069 161.826 309.467 161.826Z" fill="#373B55"/>
    <path fill-rule="evenodd" clip-rule="evenodd" d="M262.417 172.226C262.637 172.226 262.816 172.043 262.816 171.817C262.816 165.94 267.48 161.159 273.214 161.159C278.947 161.159 283.611 165.94 283.611 171.817C283.611 172.043 283.79 172.226 284.01 172.226C284.231 172.226 284.409 172.043 284.409 171.817C284.409 165.489 279.387 160.34 273.214 160.34C267.04 160.34 262.018 165.489 262.018 171.817C262.018 172.043 262.197 172.226 262.417 172.226Z" fill="#D83058"/>
    <path fill-rule="evenodd" clip-rule="evenodd" d="M309.467 180.163C313.956 180.163 317.595 176.36 317.595 171.669C317.595 166.978 313.956 163.175 309.467 163.175C304.978 163.175 301.339 166.978 301.339 171.669C301.339 176.36 304.978 180.163 309.467 180.163ZM309.467 162.569C314.276 162.569 318.175 166.643 318.175 171.669C318.175 176.694 314.276 180.769 309.467 180.769C304.658 180.769 300.759 176.694 300.759 171.669C300.759 166.643 304.658 162.569 309.467 162.569Z" fill="#9FACB9"/>
    <path fill-rule="evenodd" clip-rule="evenodd" d="M273.391 181.512C273.418 181.512 273.439 181.49 273.439 181.462V161.876C273.439 161.848 273.418 161.826 273.391 161.826C273.365 161.826 273.344 161.848 273.344 161.876V181.462C273.344 181.49 273.365 181.512 273.391 181.512Z" fill="#9FACB9"/>
    <path fill-rule="evenodd" clip-rule="evenodd" d="M263.842 171.904H282.585C282.611 171.904 282.632 171.882 282.632 171.855C282.632 171.827 282.611 171.805 282.585 171.805H263.842C263.816 171.805 263.795 171.827 263.795 171.855C263.795 171.882 263.816 171.904 263.842 171.904Z" fill="#9FACB9"/>
    <path fill-rule="evenodd" clip-rule="evenodd" d="M270.951 181.141C270.972 181.141 270.991 181.126 270.997 181.104L275.878 162.26C275.885 162.234 275.869 162.207 275.844 162.2C275.819 162.192 275.793 162.208 275.786 162.235L270.905 181.079C270.898 181.105 270.914 181.132 270.939 181.139C270.943 181.14 270.947 181.141 270.951 181.141Z" fill="#9FACB9"/>
    <path fill-rule="evenodd" clip-rule="evenodd" d="M282.23 174.455C282.251 174.455 282.27 174.44 282.275 174.418C282.282 174.392 282.267 174.364 282.242 174.357L264.21 169.257C264.185 169.249 264.159 169.266 264.152 169.292C264.145 169.318 264.16 169.345 264.185 169.353L282.218 174.453C282.222 174.455 282.226 174.455 282.23 174.455Z" fill="#9FACB9"/>
    <path fill-rule="evenodd" clip-rule="evenodd" d="M268.463 180.398C268.48 180.398 268.496 180.389 268.505 180.373L278.006 163.386C278.019 163.363 278.011 163.332 277.988 163.319C277.965 163.305 277.936 163.313 277.922 163.337L268.422 180.324C268.409 180.347 268.417 180.378 268.439 180.391C268.447 180.395 268.455 180.398 268.463 180.398Z" fill="#9FACB9"/>
    <path fill-rule="evenodd" clip-rule="evenodd" d="M281.519 176.683C281.535 176.683 281.551 176.674 281.56 176.658C281.573 176.635 281.565 176.604 281.543 176.59L265.288 166.661C265.266 166.648 265.237 166.655 265.223 166.68C265.21 166.704 265.218 166.734 265.24 166.748L281.495 176.677C281.503 176.681 281.511 176.683 281.519 176.683Z" fill="#9FACB9"/>
    <path fill-rule="evenodd" clip-rule="evenodd" d="M266.686 178.912C266.698 178.912 266.711 178.907 266.72 178.897L280.131 164.883C280.149 164.863 280.149 164.832 280.131 164.812C280.112 164.793 280.082 164.793 280.063 164.812L266.652 178.826C266.634 178.846 266.634 178.878 266.652 178.897C266.661 178.907 266.674 178.912 266.686 178.912Z" fill="#9FACB9"/>
    <path fill-rule="evenodd" clip-rule="evenodd" d="M280.097 178.912C280.109 178.912 280.122 178.907 280.131 178.897C280.149 178.878 280.149 178.846 280.131 178.826L266.72 164.812C266.701 164.793 266.671 164.793 266.652 164.812C266.634 164.832 266.634 164.863 266.652 164.883L280.063 178.897C280.072 178.907 280.085 178.912 280.097 178.912Z" fill="#9FACB9"/>
    <path fill-rule="evenodd" clip-rule="evenodd" d="M265.264 176.683C265.272 176.683 265.28 176.681 265.288 176.677L281.543 166.748C281.565 166.734 281.573 166.704 281.56 166.68C281.547 166.655 281.518 166.648 281.495 166.661L265.24 176.59C265.218 176.604 265.21 176.635 265.223 176.658C265.232 176.674 265.248 176.683 265.264 176.683Z" fill="#9FACB9"/>
    <path fill-rule="evenodd" clip-rule="evenodd" d="M277.964 180.398C277.972 180.398 277.98 180.395 277.988 180.391C278.011 180.378 278.019 180.347 278.006 180.324L268.505 163.337C268.492 163.313 268.462 163.305 268.44 163.319C268.417 163.332 268.409 163.363 268.422 163.386L277.922 180.373C277.931 180.389 277.948 180.398 277.964 180.398Z" fill="#9FACB9"/>
    <path fill-rule="evenodd" clip-rule="evenodd" d="M264.198 174.455C264.202 174.455 264.206 174.455 264.21 174.453L282.242 169.353C282.267 169.345 282.282 169.318 282.275 169.292C282.268 169.265 282.242 169.25 282.218 169.256L264.186 174.357C264.16 174.364 264.145 174.392 264.152 174.418C264.158 174.44 264.177 174.455 264.198 174.455Z" fill="#9FACB9"/>
    <path fill-rule="evenodd" clip-rule="evenodd" d="M275.832 181.141C275.836 181.141 275.84 181.14 275.844 181.139C275.869 181.132 275.884 181.105 275.878 181.079L270.997 162.234C270.99 162.208 270.964 162.192 270.939 162.199C270.913 162.206 270.898 162.233 270.905 162.26L275.786 181.104C275.792 181.126 275.811 181.141 275.832 181.141Z" fill="#9FACB9"/>
    <path fill-rule="evenodd" clip-rule="evenodd" d="M271.614 171.669C271.614 172.592 272.33 173.34 273.214 173.34C274.097 173.34 274.813 172.592 274.813 171.669C274.813 170.746 274.097 169.998 273.214 169.998C272.33 169.998 271.614 170.746 271.614 171.669Z" fill="#9FACB9"/>
    <path fill-rule="evenodd" clip-rule="evenodd" d="M272.681 171.855C272.681 172.265 272.999 172.598 273.391 172.598C273.784 172.598 274.102 172.265 274.102 171.855C274.102 171.444 273.784 171.112 273.391 171.112C272.999 171.112 272.681 171.444 272.681 171.855Z" fill="#373B55"/>
    <path fill-rule="evenodd" clip-rule="evenodd" d="M273.214 180.242C277.728 180.242 281.388 176.487 281.388 171.855C281.388 167.223 277.728 163.467 273.214 163.467C268.699 163.467 265.039 167.223 265.039 171.855C265.039 176.487 268.699 180.242 273.214 180.242ZM273.214 161.826C278.612 161.826 282.988 166.316 282.988 171.855C282.988 177.393 278.612 181.883 273.214 181.883C267.816 181.883 263.44 177.393 263.44 171.855C263.44 166.316 267.816 161.826 273.214 161.826Z" fill="#373B55"/>
    <path fill-rule="evenodd" clip-rule="evenodd" d="M273.214 180.163C277.703 180.163 281.342 176.36 281.342 171.669C281.342 166.978 277.703 163.175 273.214 163.175C268.725 163.175 265.086 166.978 265.086 171.669C265.086 176.36 268.725 180.163 273.214 180.163ZM273.214 162.569C278.023 162.569 281.922 166.643 281.922 171.669C281.922 176.694 278.023 180.769 273.214 180.769C268.405 180.769 264.506 176.694 264.506 171.669C264.506 166.643 268.405 162.569 273.214 162.569Z" fill="#9FACB9"/>
    <path fill-rule="evenodd" clip-rule="evenodd" d="M273.419 172.226C273.465 172.226 273.511 172.218 273.555 172.2C273.694 172.146 273.787 172.014 273.805 171.868C274.043 171.082 277.9 161.165 280.47 154.599C280.552 154.388 280.459 154.146 280.26 154.058C280.062 153.97 279.834 154.071 279.751 154.281C279.751 154.281 278.059 158.604 276.376 162.937C275.535 165.104 274.696 167.274 274.071 168.907C272.936 171.876 272.936 171.876 273.137 172.099C273.212 172.182 273.315 172.226 273.419 172.226Z" fill="#FFD24E"/>
    <path fill-rule="evenodd" clip-rule="evenodd" d="M309.66 172.226C309.813 172.226 309.956 172.124 310.01 171.959L313.533 161.247C313.601 161.039 313.5 160.809 313.307 160.735C313.114 160.661 312.902 160.769 312.833 160.979L309.311 171.69C309.242 171.899 309.343 172.129 309.536 172.203C309.577 172.219 309.619 172.226 309.66 172.226Z" fill="#E24D6B"/>
    <path fill-rule="evenodd" clip-rule="evenodd" d="M296.494 174.083L309.644 173.279L309.622 172.884L296.874 173.664V168.957L309.516 170.528L309.561 170.135L296.494 168.512V174.083Z" fill="#9FACB9"/>
    <path fill-rule="evenodd" clip-rule="evenodd" d="M298.269 172.219C298.298 172.224 298.327 172.226 298.357 172.226L307.426 172.22C307.67 172.221 307.867 172.055 307.867 171.852C307.867 171.648 307.671 171.482 307.425 171.483L298.357 171.489C298.113 171.489 297.915 171.654 297.916 171.858C297.916 172.036 298.067 172.185 298.269 172.219Z" fill="#E24D6B"/>
    <path fill-rule="evenodd" clip-rule="evenodd" d="M302.64 156.998L303.781 156.492C304.195 156.308 304.41 155.77 304.27 155.267L304.132 154.769L303.848 154.882L303.987 155.381C304.075 155.699 303.939 156.039 303.677 156.155L302.536 156.661L302.64 156.998Z" fill="#8999A5"/>
    <path fill-rule="evenodd" clip-rule="evenodd" d="M293.704 170.745C293.412 172.253 294.345 173.722 295.788 174.027C297.231 174.332 298.637 173.357 298.928 171.849C299.22 170.342 298.287 168.872 296.844 168.568C295.402 168.263 293.996 169.238 293.704 170.745Z" fill="#D83058"/>
    <path fill-rule="evenodd" clip-rule="evenodd" d="M295.449 170.891C295.332 171.494 295.705 172.082 296.283 172.204C296.86 172.326 297.422 171.936 297.539 171.333C297.655 170.73 297.282 170.142 296.705 170.02C296.128 169.898 295.566 170.288 295.449 170.891Z" fill="white"/>
    <path fill-rule="evenodd" clip-rule="evenodd" d="M309.621 172.226C309.677 172.226 309.733 172.213 309.787 172.186C309.975 172.089 310.053 171.851 309.961 171.653L302.901 156.478C302.809 156.281 302.582 156.199 302.393 156.296C302.205 156.392 302.127 156.631 302.219 156.828L309.28 172.003C309.345 172.144 309.481 172.226 309.621 172.226Z" fill="#E24D6B"/>
    <path fill-rule="evenodd" clip-rule="evenodd" d="M301.825 156.255C301.825 156.665 302.143 156.997 302.536 156.997C302.929 156.997 303.247 156.665 303.247 156.255C303.247 155.844 302.929 155.512 302.536 155.512C302.143 155.512 301.825 155.844 301.825 156.255Z" fill="#8999A5"/>
    <path fill-rule="evenodd" clip-rule="evenodd" d="M304.781 155.148L301.911 156.255L301.284 156.02L298.183 155.254C297.6 155.111 297.364 154.368 297.747 153.881C297.916 153.666 298.175 153.552 298.438 153.578L301.008 153.824L304.335 153.294C304.756 153.227 305.165 153.478 305.318 153.898C305.501 154.4 305.259 154.964 304.781 155.148Z" fill="#373B55"/>
    <path fill-rule="evenodd" clip-rule="evenodd" d="M291.184 174.455C291.242 174.455 291.301 174.44 291.357 174.41L296.647 171.493C296.831 171.391 296.902 171.15 296.807 170.955C296.711 170.76 296.484 170.684 296.3 170.785L291.01 173.702C290.825 173.804 290.754 174.045 290.85 174.24C290.917 174.376 291.048 174.455 291.184 174.455Z" fill="#373B55"/>
    <path fill-rule="evenodd" clip-rule="evenodd" d="M288.601 174.826H292.302C292.458 174.826 292.584 174.71 292.584 174.566V173.972C292.584 173.828 292.458 173.712 292.302 173.712H288.601C288.445 173.712 288.319 173.828 288.319 173.972V174.566C288.319 174.71 288.445 174.826 288.601 174.826Z" fill="#9FACB9"/>
    <path fill-rule="evenodd" clip-rule="evenodd" d="M304.933 149.94C304.933 149.94 305.537 152.479 303.637 153.73C303.637 153.73 298.382 157.151 294.937 160.642C294.937 160.642 294.058 167.616 291.683 172.598L290.452 172.46C290.452 172.46 291.208 165.483 291.493 161.268C291.778 157.052 299.103 150.29 299.103 150.29L304.933 149.94Z" fill="#263238"/>
    <path fill-rule="evenodd" clip-rule="evenodd" d="M298.271 150.878C298.271 150.878 298.271 150.878 298.272 150.877L299.418 149.918L304.936 149.569C304.936 149.569 305.071 150.175 305.007 150.947C304.927 150.972 304.848 150.997 304.767 151.021C301.435 152.009 298.273 150.879 298.271 150.878Z" fill="#344582"/>
    <path fill-rule="evenodd" clip-rule="evenodd" d="M296.339 137.312C296.339 137.312 302.498 138.087 305.37 149.528C305.606 150.467 301.259 151.493 297.367 150.859C297.367 150.859 297.391 147.495 295.692 145.337C293.992 143.18 292.2 140.649 294.132 139.169C296.064 137.69 296.339 137.312 296.339 137.312Z" fill="#FFD24E"/>
    <path fill-rule="evenodd" clip-rule="evenodd" d="M319.241 157.369H306.09V143.255H319.241V157.369Z" fill="#FFB958"/>
    <path fill-rule="evenodd" clip-rule="evenodd" d="M319.952 144.741H305.379V143.255H319.952V144.741Z" fill="#F29E3B"/>
    <path fill-rule="evenodd" clip-rule="evenodd" d="M309.289 155.884H307.512V154.026H309.289V155.884Z" fill="#F29E3B"/>
    <path fill-rule="evenodd" clip-rule="evenodd" d="M311.777 155.884H310V154.026H311.777V155.884Z" fill="#F29E3B"/>
    <path fill-rule="evenodd" clip-rule="evenodd" d="M294.018 143.105C294.067 142.985 294.12 142.867 294.177 142.757L295.522 140.189C295.522 140.189 294.616 138.559 295.987 138.942C297.359 139.325 297.384 142.026 295.928 145.883C295.756 145.552 295.56 145.232 295.331 144.934C294.876 144.342 294.415 143.723 294.018 143.105Z" fill="#E4B836"/>
    <path fill-rule="evenodd" clip-rule="evenodd" d="M292.33 172.061C292.33 172.061 293.018 172.493 293.018 173.883H289.018C289.018 173.883 289.675 172.7 291.251 171.883L292.33 172.061Z" fill="#373B55"/>
    <path fill-rule="evenodd" clip-rule="evenodd" d="M292.058 147.905C291.131 148.155 287.9 149.213 286.991 149.367C286.082 149.521 284.422 150.162 284.16 150.64C283.898 151.117 283.771 151.579 285.905 151.883C285.905 151.883 286.102 151.87 285.843 151.504C285.584 151.138 286.82 150.788 287.112 150.792C287.384 150.796 290.588 150.386 292.891 150.066C293.246 150.016 293.613 149.852 293.86 149.587C294.38 149.031 294.707 148.192 295.175 147.101C295.859 145.51 296.381 144.21 296.703 143.092C296.703 143.092 297.426 140.979 296.681 140.298C295.72 139.42 294.549 139.956 294.095 141.72C293.642 143.484 292.644 147.131 292.058 147.905Z" fill="#F8AB98"/>
    <path fill-rule="evenodd" clip-rule="evenodd" d="M296.724 142.483C296.438 143.682 296.174 145.204 295.578 146.883L293.018 145.29C293.426 143.772 294.051 142.079 294.293 140.944C294.716 138.965 295.808 138.364 296.703 139.348C297.399 140.113 296.724 142.483 296.724 142.483Z" fill="#FFD24E"/>
    <path fill-rule="evenodd" clip-rule="evenodd" d="M282.018 154.883H280.018V153.883H282.018V154.883Z" fill="#9FACB9"/>
    <path fill-rule="evenodd" clip-rule="evenodd" d="M282.018 154.057H280.018V153.71H282.018V154.057Z" fill="#8999A5"/>
    <path fill-rule="evenodd" clip-rule="evenodd" d="M293.127 136.203C293.127 136.203 292.795 137.039 294.018 137.36C294.018 137.36 293.834 137.79 292.871 137.878C291.908 137.966 291.11 136.884 291.021 136.203C290.948 135.65 292.374 135.925 293.127 136.203Z" fill="white"/>
    <path fill-rule="evenodd" clip-rule="evenodd" d="M294.147 135.883C294.176 135.883 294.205 135.878 294.229 135.866C294.854 135.562 295.01 134.998 295.016 134.974C295.027 134.931 294.979 134.891 294.909 134.885C294.841 134.877 294.772 134.906 294.761 134.949C294.759 134.954 294.613 135.479 294.066 135.745C294.01 135.772 294.002 135.821 294.047 135.854C294.072 135.873 294.11 135.883 294.147 135.883Z" fill="white"/>
    <path fill-rule="evenodd" clip-rule="evenodd" d="M293.919 136.883C293.94 136.883 293.961 136.869 293.975 136.84C294.377 136.014 294.086 134.99 294.074 134.947C294.058 134.893 294.017 134.868 293.981 134.893C293.946 134.917 293.93 134.981 293.946 135.036C293.949 135.046 294.214 135.987 293.863 136.71C293.84 136.757 293.846 136.826 293.877 136.862C293.889 136.876 293.904 136.883 293.919 136.883Z" fill="white"/>
    <path fill-rule="evenodd" clip-rule="evenodd" d="M316.401 163.883C316.547 163.883 316.687 163.795 316.751 163.648L318.985 158.44C319.071 158.24 318.984 158.006 318.79 157.918C318.598 157.829 318.371 157.919 318.285 158.119L316.051 163.326C315.965 163.526 316.052 163.76 316.245 163.849C316.296 163.872 316.349 163.883 316.401 163.883Z" fill="#373B55"/>
    <path fill-rule="evenodd" clip-rule="evenodd" d="M308.633 160.883C308.678 160.883 308.724 160.877 308.768 160.865C308.967 160.81 309.068 160.647 308.994 160.5L307.763 158.068C307.688 157.921 307.467 157.846 307.268 157.901C307.069 157.956 306.968 158.119 307.042 158.266L308.273 160.699C308.331 160.813 308.478 160.883 308.633 160.883Z" fill="#373B55"/>
    <path fill-rule="evenodd" clip-rule="evenodd" d="M318.518 157.883C318.794 157.883 319.018 157.706 319.018 157.488V143.278C319.018 143.06 318.794 142.883 318.518 142.883C318.242 142.883 318.018 143.06 318.018 143.278V157.488C318.018 157.706 318.242 157.883 318.518 157.883Z" fill="#373B55"/>
    <path fill-rule="evenodd" clip-rule="evenodd" d="M308.518 157.883C308.794 157.883 309.018 157.706 309.018 157.488V143.278C309.018 143.06 308.794 142.883 308.518 142.883C308.242 142.883 308.018 143.06 308.018 143.278V157.488C308.018 157.706 308.242 157.883 308.518 157.883Z" fill="#373B55"/>
    <path fill-rule="evenodd" clip-rule="evenodd" d="M293.018 131.653C293.018 131.653 289.895 130.736 289.153 130.904C288.41 131.072 290.975 132.748 290.975 132.748L291.662 132.883L293.018 131.653Z" fill="#E24D6B"/>
    <path fill-rule="evenodd" clip-rule="evenodd" d="M294.323 134.661C291.784 133.476 290.018 132.555 290.018 132.555C290.018 132.555 290.848 127.935 296.288 130.845C299.69 132.665 297.025 135.883 297.025 135.883C296.424 135.62 295.846 135.361 295.292 135.107C295.307 134.93 295.26 134.748 295.106 134.581C294.742 134.187 294.483 134.383 294.323 134.661Z" fill="#E24D6B"/>
    <g clip-path="url(#clip0_379_8075)">
        <g filter="url(#filter0_f_379_8075)">
            <rect x="208.018" y="130.883" width="65" height="24" rx="6" fill="#FFD24E"/>
        </g>
        <rect x="205.018" y="118.883" width="71" height="32" rx="6" fill="#FFD24E"/>
        <path d="M221.726 137.359L225.026 134.167C225.122 134.071 225.222 133.971 225.326 133.867C225.43 133.755 225.522 133.639 225.602 133.519C225.69 133.399 225.762 133.275 225.818 133.147C225.874 133.011 225.902 132.871 225.902 132.727C225.902 132.551 225.866 132.395 225.794 132.259C225.73 132.123 225.642 132.007 225.53 131.911C225.418 131.815 225.286 131.743 225.134 131.695C224.99 131.639 224.834 131.611 224.666 131.611C224.306 131.611 224.01 131.715 223.778 131.923C223.546 132.131 223.406 132.411 223.358 132.763L221.846 132.643C221.878 132.251 221.97 131.907 222.122 131.611C222.282 131.307 222.486 131.055 222.734 130.855C222.982 130.655 223.27 130.503 223.598 130.399C223.926 130.295 224.282 130.243 224.666 130.243C225.05 130.243 225.406 130.295 225.734 130.399C226.07 130.495 226.362 130.643 226.61 130.843C226.858 131.035 227.054 131.283 227.198 131.587C227.342 131.891 227.414 132.247 227.414 132.655C227.414 133.191 227.29 133.655 227.042 134.047C226.802 134.431 226.49 134.799 226.106 135.151L223.478 137.587H227.414V138.883H221.726V137.359ZM228.6 134.635C228.6 133.963 228.652 133.391 228.756 132.919C228.868 132.439 229.012 132.039 229.188 131.719C229.364 131.391 229.56 131.131 229.776 130.939C230 130.739 230.224 130.591 230.448 130.495C230.68 130.391 230.9 130.323 231.108 130.291C231.324 130.259 231.512 130.243 231.672 130.243C231.832 130.243 232.016 130.259 232.224 130.291C232.44 130.323 232.66 130.391 232.884 130.495C233.116 130.591 233.34 130.739 233.556 130.939C233.78 131.131 233.98 131.391 234.156 131.719C234.332 132.039 234.472 132.439 234.576 132.919C234.688 133.391 234.744 133.963 234.744 134.635C234.744 135.307 234.688 135.883 234.576 136.363C234.472 136.835 234.332 137.235 234.156 137.563C233.98 137.883 233.78 138.143 233.556 138.343C233.34 138.535 233.116 138.683 232.884 138.787C232.66 138.883 232.44 138.947 232.224 138.979C232.016 139.011 231.832 139.027 231.672 139.027C231.512 139.027 231.324 139.011 231.108 138.979C230.9 138.947 230.68 138.883 230.448 138.787C230.224 138.683 230 138.535 229.776 138.343C229.56 138.143 229.364 137.883 229.188 137.563C229.012 137.235 228.868 136.835 228.756 136.363C228.652 135.883 228.6 135.307 228.6 134.635ZM230.04 134.635C230.04 134.899 230.056 135.207 230.088 135.559C230.128 135.903 230.204 136.231 230.316 136.543C230.428 136.855 230.592 137.119 230.808 137.335C231.024 137.551 231.312 137.659 231.672 137.659C232.032 137.659 232.32 137.551 232.536 137.335C232.752 137.119 232.916 136.855 233.028 136.543C233.14 136.231 233.212 135.903 233.244 135.559C233.284 135.207 233.304 134.899 233.304 134.635C233.304 134.371 233.284 134.067 233.244 133.723C233.212 133.371 233.14 133.039 233.028 132.727C232.916 132.415 232.752 132.151 232.536 131.935C232.32 131.719 232.032 131.611 231.672 131.611C231.312 131.611 231.024 131.719 230.808 131.935C230.592 132.151 230.428 132.415 230.316 132.727C230.204 133.039 230.128 133.371 230.088 133.723C230.056 134.067 230.04 134.371 230.04 134.635ZM239.528 133.123H240.896V134.023H240.92C241.048 133.751 241.252 133.511 241.532 133.303C241.82 133.087 242.204 132.979 242.684 132.979C243.588 132.979 244.188 133.335 244.484 134.047C244.692 133.679 244.952 133.411 245.264 133.243C245.576 133.067 245.948 132.979 246.38 132.979C246.764 132.979 247.088 133.043 247.352 133.171C247.616 133.299 247.828 133.475 247.988 133.699C248.156 133.923 248.276 134.187 248.348 134.491C248.42 134.787 248.456 135.107 248.456 135.451V138.883H247.016V135.619C247.016 135.443 247 135.275 246.968 135.115C246.936 134.947 246.88 134.803 246.8 134.683C246.72 134.555 246.612 134.455 246.476 134.383C246.34 134.311 246.164 134.275 245.948 134.275C245.724 134.275 245.532 134.319 245.372 134.407C245.22 134.487 245.092 134.599 244.988 134.743C244.892 134.879 244.82 135.039 244.772 135.223C244.732 135.399 244.712 135.579 244.712 135.763V138.883H243.272V135.451C243.272 135.091 243.196 134.807 243.044 134.599C242.892 134.383 242.64 134.275 242.288 134.275C242.048 134.275 241.844 134.315 241.676 134.395C241.516 134.475 241.38 134.583 241.268 134.719C241.164 134.855 241.088 135.011 241.04 135.187C240.992 135.363 240.968 135.547 240.968 135.739V138.883H239.528V133.123ZM250.053 133.123H251.493V138.883H250.053V133.123ZM249.849 131.167C249.849 130.935 249.933 130.735 250.101 130.567C250.277 130.391 250.497 130.303 250.761 130.303C251.025 130.303 251.245 130.387 251.421 130.555C251.605 130.715 251.697 130.919 251.697 131.167C251.697 131.415 251.605 131.623 251.421 131.791C251.245 131.951 251.025 132.031 250.761 132.031C250.497 132.031 250.277 131.947 250.101 131.779C249.933 131.603 249.849 131.399 249.849 131.167ZM253.146 133.123H254.514V134.047H254.538C254.674 133.759 254.882 133.511 255.162 133.303C255.442 133.087 255.822 132.979 256.302 132.979C256.686 132.979 257.01 133.043 257.274 133.171C257.546 133.299 257.766 133.467 257.934 133.675C258.102 133.883 258.222 134.123 258.294 134.395C258.366 134.667 258.402 134.951 258.402 135.247V138.883H256.962V135.967C256.962 135.807 256.954 135.631 256.938 135.439C256.922 135.239 256.878 135.055 256.806 134.887C256.742 134.711 256.638 134.567 256.494 134.455C256.35 134.335 256.154 134.275 255.906 134.275C255.666 134.275 255.462 134.315 255.294 134.395C255.134 134.475 254.998 134.583 254.886 134.719C254.782 134.855 254.706 135.011 254.658 135.187C254.61 135.363 254.586 135.547 254.586 135.739V138.883H253.146V133.123Z" fill="#425060"/>
    </g>
    <defs>
        <filter id="filter0_f_379_8075" x="188.99" y="111.855" width="103.056" height="62.0559" filterUnits="userSpaceOnUse" color-interpolation-filters="sRGB">
            <feFlood flood-opacity="0" result="BackgroundImageFix"/>
            <feBlend mode="normal" in="SourceGraphic" in2="BackgroundImageFix" result="shape"/>
            <feGaussianBlur stdDeviation="9.51399" result="effect1_foregroundBlur_379_8075"/>
        </filter>
        <clipPath id="clip0_379_8075">
            <rect width="71" height="36" fill="white" transform="translate(205.018 118.883)"/>
        </clipPath>
    </defs>
</svg>
